<?xml version="1.0" encoding="UTF-8"?>
<svg id="Layer_2" data-name="Layer 2" xmlns="http://www.w3.org/2000/svg" viewBox="0 0 197.09 212.96">
  <defs>
    <style>
      .cls-1 {
        fill: #d42a1d;
      }

      .cls-1, .cls-2 {
        stroke-width: 0px;
      }

      .cls-2 {
        fill: #ff8c00;
      }
    </style>
  </defs>
  <g id="Print">
    <g>
      <path class="cls-1" d="M.59,103.04c4.14-1.07,7.88-2.04,11.62-3.01q2.54-.66,2-3.24c-2.15-10.29-4.31-20.58-6.46-30.87-.02-.12.01-.24.05-.7,9.61,1.93,19.18,3.86,29,5.84.23-5.47.45-10.67.69-16.28,3.33,3.73,6.34,7.19,9.46,10.56,6.32,6.84,12.61,13.72,20.01,19.44,2.54,1.96,3.51,2.32,5.71,2.26-4.49-19.3-8.37-38.65-16.07-57.08,4.47,1.88,9.03,3.52,13.33,5.68,5.17,2.59,9.32.81,13.18-2.47,3.5-2.97,5.73-6.89,7.42-11.12,2.5-6.21,3.87-12.69,4.55-19.33.08-.73.2-1.46.38-2.72,7.22,13.06,14.21,25.72,21.34,38.61,5.67-3.33,11.2-6.57,17.13-10.06-.47,3.96-.8,7.5-1.32,11.01-1.76,11.9-4.62,23.53-8.88,34.79-4.4,11.64-10.12,22.57-17.89,32.35-13.16,16.57-30.04,27.08-50.86,31.16-2.35.46-4.37-.33-6.25-1.63-10.55-7.28-21.08-14.57-31.63-21.85-5.37-3.7-10.75-7.39-16.52-11.36Z"/>
      <path class="cls-1" d="M96.33,160.46c.77-9.45,3-18.04,6.03-26.46,6.15-17.06,15.52-32.24,27.04-46.13,10.87-13.11,23.39-24.51,37.05-34.66.3-.22.61-.42.92-.61.09-.05.23-.03.6-.06-.92,5.43-1.83,10.79-2.81,16.55,10.38-1.25,20.58-2.47,31.03-3.73-4.46,3.44-8.12,7.32-11.19,11.74-2.3,3.32-4.12,6.84-4.66,10.92-.6,4.49.89,8.25,4.44,10.91,3.17,2.38,6.66,4.32,10.06,6.48-1.91,1.25-4.23,2.77-6.55,4.28-18.07,11.75-36.15,23.49-54.2,35.27-1.47.96-2.75,1.22-4.58.78-7.44-1.8-14.39-.19-20.87,3.72-4.64,2.8-8.48,6.5-12.3,11.02Z"/>
      <path class="cls-2" d="M197.09,171.53c-1.7-.12-3.14-.17-4.57-.32-16.96-1.76-33.59-.15-49.74,5.37-11.3,3.86-21.33,9.91-29.8,18.39-4.59,4.59-8.55,9.71-11.74,15.39-.44.79-.95,1.53-1.62,2.61-.5-.84-.88-1.37-1.16-1.95-6.12-12.78-16.06-21.63-28.58-27.84-10.48-5.19-21.58-8.42-33.18-9.63-9.17-.96-18.39-1.45-27.6-2.04-2.87-.19-5.76-.03-9.09-.03,1.39-1.8,2.68-3.47,3.97-5.13,3.56-4.57,7.17-9.1,10.64-13.74,1.22-1.64,2.46-2.43,4.65-2.58,13.99-.96,27.69.54,41.1,4.5,14.3,4.22,26.57,11.66,35.91,23.52.76.96,1.46,1.98,2.19,2.96.06.08.22.09.46.18,2.28-2.14,4.55-4.38,6.94-6.48,14.15-12.39,30.18-21.05,48.92-24.09,8.53-1.39,17.05-1.12,25.51.69.61.13,1.29.53,1.68,1.02,4.85,5.99,9.65,12.01,14.45,18.04.21.27.34.6.65,1.17Z"/>
    </g>
  </g>
</svg>