<svg width="32" height="32" viewBox="0 0 32 32" fill="none" xmlns="http://www.w3.org/2000/svg">
<path d="M15.9993 2.66699C12.506 2.66699 9.66602 5.50699 9.66602 9.00033C9.66602 12.427 12.346 15.2003 15.8393 15.3203C15.946 15.307 16.0527 15.307 16.1327 15.3203C16.1593 15.3203 16.1727 15.3203 16.1993 15.3203C16.2127 15.3203 16.2127 15.3203 16.226 15.3203C19.6393 15.2003 22.3193 12.427 22.3327 9.00033C22.3327 5.50699 19.4927 2.66699 15.9993 2.66699Z" fill="#D91E1E"/>
<path d="M22.7733 18.8668C19.0533 16.3868 12.9866 16.3868 9.23995 18.8668C7.54661 20.0002 6.61328 21.5335 6.61328 23.1735C6.61328 24.8135 7.54661 26.3335 9.22661 27.4535C11.0933 28.7068 13.5466 29.3335 15.9999 29.3335C18.4533 29.3335 20.9066 28.7068 22.7733 27.4535C24.4533 26.3202 25.3866 24.8002 25.3866 23.1468C25.3733 21.5068 24.4533 19.9868 22.7733 18.8668Z" fill="#D91E1E"/>
</svg>
