<svg width="32" height="32" viewBox="0 0 32 32" fill="none" xmlns="http://www.w3.org/2000/svg">
<path d="M15.9993 2.7207C8.66602 2.7207 2.66602 8.70737 2.66602 16.0807C2.66602 22.7474 7.54601 28.2807 13.9193 29.2807V19.9474H10.5327V16.0807H13.9193V13.134C13.9193 9.78737 15.906 7.94737 18.9594 7.94737C20.4127 7.94737 21.9327 8.2007 21.9327 8.2007V11.494H20.2527C18.5993 11.494 18.0793 12.5207 18.0793 13.574V16.0807H21.786L21.186 19.9474H18.0793V29.2807C21.2213 28.7845 24.0823 27.1814 26.1459 24.7608C28.2095 22.3402 29.3398 19.2616 29.3327 16.0807C29.3327 8.70737 23.3327 2.7207 15.9993 2.7207Z" fill="#D91E1E"/>
</svg>
