<svg width="20" height="20" viewBox="0 0 20 20" fill="none" xmlns="http://www.w3.org/2000/svg">
<path fill-rule="evenodd" clip-rule="evenodd" d="M10.0003 1.66602C5.39783 1.66602 1.66699 5.39685 1.66699 9.99935C1.66699 11.5743 2.10449 13.0493 2.86533 14.306L2.12199 16.8327C2.07931 16.9778 2.0765 17.1316 2.11386 17.2782C2.15122 17.4247 2.22737 17.5585 2.33429 17.6654C2.44122 17.7723 2.57498 17.8485 2.72151 17.8858C2.86804 17.9232 3.02192 17.9204 3.16699 17.8777L5.69366 17.1343C6.99261 17.9201 8.48219 18.3346 10.0003 18.3327C14.6028 18.3327 18.3337 14.6018 18.3337 9.99935C18.3337 5.39685 14.6028 1.66602 10.0003 1.66602ZM8.11533 11.8852C9.80116 13.5702 11.4103 13.7927 11.9787 13.8135C12.8428 13.8452 13.6845 13.1852 14.012 12.4193C14.053 12.324 14.0678 12.2194 14.0549 12.1165C14.042 12.0135 14.0019 11.9158 13.9387 11.8335C13.482 11.2502 12.8645 10.831 12.2612 10.4143C12.1353 10.327 11.9804 10.292 11.8292 10.3165C11.6779 10.3411 11.5421 10.4234 11.4503 10.546L10.9503 11.3085C10.9239 11.3494 10.8829 11.3786 10.8357 11.3904C10.7886 11.4021 10.7387 11.3955 10.6962 11.3719C10.357 11.1777 9.86283 10.8477 9.50783 10.4927C9.15283 10.1377 8.84283 9.66602 8.66866 9.34852C8.64759 9.30806 8.64164 9.26142 8.65187 9.21697C8.6621 9.17252 8.68785 9.13318 8.72449 9.10602L9.49449 8.53435C9.6047 8.43901 9.67585 8.30636 9.6943 8.16181C9.71275 8.01726 9.67721 7.87098 9.59449 7.75102C9.22116 7.20435 8.78616 6.50935 8.15533 6.04852C8.07374 5.9899 7.9784 5.95334 7.87854 5.94239C7.77867 5.93144 7.67768 5.94647 7.58533 5.98602C6.81866 6.31435 6.15533 7.15602 6.18699 8.02185C6.20783 8.59018 6.43033 10.1993 8.11533 11.8852Z" fill="#FCFCFC"/>
</svg>
