<svg width="32" height="32" viewBox="0 0 32 32" fill="none" xmlns="http://www.w3.org/2000/svg">
<path d="M22.666 4.66699H9.33268C5.33268 4.66699 2.66602 6.66699 2.66602 11.3337V20.667C2.66602 25.3337 5.33268 27.3337 9.33268 27.3337H22.666C26.666 27.3337 29.3327 25.3337 29.3327 20.667V11.3337C29.3327 6.66699 26.666 4.66699 22.666 4.66699ZM23.2927 12.787L19.1194 16.1203C18.2393 16.827 17.1193 17.1737 15.9993 17.1737C14.8793 17.1737 13.746 16.827 12.8793 16.1203L8.70602 12.787C8.27935 12.4403 8.21268 11.8003 8.54602 11.3737C8.89268 10.947 9.51935 10.867 9.94602 11.2137L14.1193 14.547C15.1327 15.3603 16.8527 15.3603 17.866 14.547L22.0394 11.2137C22.466 10.867 23.106 10.9337 23.4394 11.3737C23.786 11.8003 23.7193 12.4403 23.2927 12.787Z" fill="#D91E1E"/>
</svg>
