<svg width="32" height="32" viewBox="0 0 32 32" fill="none" xmlns="http://www.w3.org/2000/svg">
<g clip-path="url(#clip0_103_332)">
<path fill-rule="evenodd" clip-rule="evenodd" d="M8.35969 1.08655C10.8146 0.812266 13.3768 0.572266 16.0008 0.572266C18.6248 0.572266 21.1871 0.812266 23.642 1.08655C25.5078 1.3005 27.2459 2.14112 28.572 3.47098C29.8981 4.80084 30.7339 6.54126 30.9426 8.40769C31.2054 10.8511 31.4294 13.3951 31.4294 16.0008C31.4294 18.6066 31.2054 21.1506 30.9426 23.594C30.7339 25.4604 29.8981 27.2008 28.572 28.5307C27.2459 29.8606 25.5078 30.7012 23.642 30.9151C21.1871 31.1894 18.6248 31.4294 16.0008 31.4294C13.3768 31.4294 10.8146 31.1894 8.35969 30.9151C6.49385 30.7012 4.75579 29.8606 3.42967 28.5307C2.10354 27.2008 1.26782 25.4604 1.05912 23.594C0.796266 21.1506 0.572266 18.6066 0.572266 16.0008C0.572266 13.3951 0.796266 10.8511 1.05912 8.40769C1.26782 6.54126 2.10354 4.80084 3.42967 3.47098C4.75579 2.14112 6.49385 1.3005 8.35969 1.08655ZM19.0454 6.58827C18.9665 6.24626 18.7644 5.94527 18.4778 5.74273C18.1911 5.54018 17.84 5.45026 17.4912 5.4901C17.1425 5.52995 16.8207 5.69678 16.5871 5.95877C16.3535 6.22075 16.2246 6.55956 16.2248 6.91055V20.1151C16.2248 20.8167 16.0168 21.5026 15.627 22.086C15.2372 22.6693 14.6832 23.124 14.035 23.3925C13.3867 23.661 12.6735 23.7313 11.9853 23.5944C11.2972 23.4575 10.6651 23.1196 10.169 22.6235C9.67288 22.1274 9.33502 21.4953 9.19814 20.8072C9.06126 20.1191 9.13152 19.4058 9.40001 18.7576C9.66851 18.1094 10.1232 17.5553 10.7066 17.1655C11.2899 16.7757 11.9758 16.5677 12.6774 16.5677C13.0563 16.5677 13.4197 16.4172 13.6876 16.1493C13.9555 15.8814 14.106 15.518 14.106 15.1391C14.106 14.7602 13.9555 14.3969 13.6876 14.129C13.4197 13.8611 13.0563 13.7106 12.6774 13.7106C11.4107 13.7106 10.1724 14.0862 9.11922 14.7899C8.06599 15.4937 7.2451 16.4939 6.76036 17.6642C6.27561 18.8345 6.14878 20.1222 6.3959 21.3646C6.64302 22.607 7.253 23.7481 8.14869 24.6438C9.04439 25.5395 10.1856 26.1495 11.4279 26.3966C12.6703 26.6438 13.958 26.5169 15.1283 26.0322C16.2986 25.5474 17.2989 24.7265 18.0026 23.6733C18.7064 22.6201 19.082 21.3818 19.082 20.1151V12.138C20.4534 13.3037 22.2226 13.9437 24.298 13.9437C24.6769 13.9437 25.0402 13.7932 25.3081 13.5253C25.576 13.2574 25.7266 12.894 25.7266 12.5151C25.7266 12.1362 25.576 11.7729 25.3081 11.505C25.0402 11.2371 24.6769 11.0866 24.298 11.0866C22.7894 11.0866 21.6694 10.6203 20.8443 9.88655C20.0031 9.13684 19.3791 8.02141 19.0454 6.58827Z" fill="#D91E1E"/>
</g>
<defs>
<clipPath id="clip0_103_332">
<rect width="32" height="32" fill="white"/>
</clipPath>
</defs>
</svg>
