<svg width="34" height="37" viewBox="0 0 34 37" fill="none" xmlns="http://www.w3.org/2000/svg">
<path fill-rule="evenodd" clip-rule="evenodd" d="M16.6667 0C7.46167 0 0 7.46167 0 16.6667C0 19.8167 0.875 22.7667 2.39667 25.28L0.91 30.3333C0.824641 30.6235 0.819024 30.9312 0.893741 31.2243C0.968457 31.5174 1.12075 31.7849 1.3346 31.9987C1.54845 32.2126 1.81597 32.3649 2.10903 32.4396C2.40209 32.5143 2.70986 32.5087 3 32.4233L8.05333 30.9367C10.6512 32.5082 13.6304 33.3372 16.6667 33.3333C25.8717 33.3333 33.3333 25.8717 33.3333 16.6667C33.3333 7.46167 25.8717 0 16.6667 0ZM12.8967 20.4383C16.2683 23.8083 19.4867 24.2533 20.6233 24.295C22.3517 24.3583 24.035 23.0383 24.69 21.5067C24.772 21.316 24.8016 21.1069 24.7758 20.9009C24.7501 20.6949 24.6698 20.4996 24.5433 20.335C23.63 19.1683 22.395 18.33 21.1883 17.4967C20.9365 17.3221 20.6268 17.2519 20.3244 17.301C20.0219 17.3502 19.7503 17.5147 19.5667 17.76L18.5667 19.285C18.5138 19.3667 18.4319 19.4252 18.3375 19.4487C18.2431 19.4722 18.1433 19.459 18.0583 19.4117C17.38 19.0233 16.3917 18.3633 15.6817 17.6533C14.9717 16.9433 14.3517 16 14.0033 15.365C13.9612 15.2841 13.9493 15.1908 13.9698 15.1019C13.9902 15.013 14.0417 14.9343 14.115 14.88L15.655 13.7367C15.8754 13.546 16.0177 13.2807 16.0546 12.9916C16.0915 12.7025 16.0204 12.4099 15.855 12.17C15.1083 11.0767 14.2383 9.68667 12.9767 8.765C12.8135 8.64776 12.6228 8.57465 12.4231 8.55276C12.2234 8.53086 12.0214 8.56091 11.8367 8.64C10.3033 9.29667 8.97667 10.98 9.04 12.7117C9.08167 13.8483 9.52667 17.0667 12.8967 20.4383Z" fill="#FBFBFB"/>
</svg>
