<svg width="20" height="20" viewBox="0 0 20 20" fill="none" xmlns="http://www.w3.org/2000/svg">
<path fill-rule="evenodd" clip-rule="evenodd" d="M10.0013 1.66699C5.3988 1.66699 1.66797 5.39783 1.66797 10.0003C1.66797 11.5753 2.10547 13.0503 2.8663 14.307L2.12297 16.8337C2.08029 16.9787 2.07748 17.1326 2.11484 17.2791C2.1522 17.4257 2.22834 17.5594 2.33527 17.6664C2.44219 17.7733 2.57595 17.8494 2.72248 17.8868C2.86901 17.9241 3.0229 17.9213 3.16797 17.8787L5.69463 17.1353C6.99358 17.9211 8.48317 18.3356 10.0013 18.3337C14.6038 18.3337 18.3346 14.6028 18.3346 10.0003C18.3346 5.39783 14.6038 1.66699 10.0013 1.66699ZM8.1163 11.8862C9.80214 13.5712 11.4113 13.7937 11.9796 13.8145C12.8438 13.8462 13.6855 13.1862 14.013 12.4203C14.054 12.325 14.0688 12.2204 14.0559 12.1174C14.043 12.0145 14.0029 11.9168 13.9396 11.8345C13.483 11.2512 12.8655 10.832 12.2621 10.4153C12.1362 10.328 11.9814 10.293 11.8301 10.3175C11.6789 10.3421 11.5431 10.4243 11.4513 10.547L10.9513 11.3095C10.9249 11.3503 10.8839 11.3796 10.8367 11.3914C10.7895 11.4031 10.7396 11.3965 10.6971 11.3728C10.358 11.1787 9.8638 10.8487 9.5088 10.4937C9.1538 10.1387 8.8438 9.66699 8.66964 9.34949C8.64857 9.30904 8.64261 9.2624 8.65285 9.21795C8.66308 9.1735 8.68883 9.13416 8.72547 9.10699L9.49547 8.53533C9.60568 8.43999 9.67682 8.30733 9.69528 8.16278C9.71373 8.01823 9.67819 7.87196 9.59547 7.75199C9.22214 7.20533 8.78714 6.51033 8.1563 6.04949C8.07472 5.99087 7.97937 5.95432 7.87951 5.94337C7.77965 5.93242 7.67865 5.94745 7.5863 5.98699C6.81964 6.31533 6.1563 7.15699 6.18797 8.02283C6.2088 8.59116 6.4313 10.2003 8.1163 11.8862Z" fill="#FCFCFC"/>
</svg>
