<svg width="24" height="24" viewBox="0 0 24 24" fill="none" xmlns="http://www.w3.org/2000/svg">
<path fill-rule="evenodd" clip-rule="evenodd" d="M7.54267 3.3C8.97467 3.14 10.4693 3 12 3C13.5307 3 15.0253 3.14 16.4573 3.3C17.5457 3.4248 18.5596 3.91516 19.3332 4.69091C20.1068 5.46667 20.5943 6.48191 20.716 7.57067C20.8693 8.996 21 10.48 21 12C21 13.52 20.8693 15.004 20.716 16.4293C20.5943 17.5181 20.1068 18.5333 19.3332 19.3091C18.5596 20.0848 17.5457 20.5752 16.4573 20.7C15.0253 20.86 13.5307 21 12 21C10.4693 21 8.97467 20.86 7.54267 20.7C6.45426 20.5752 5.44039 20.0848 4.66682 19.3091C3.89324 18.5333 3.40574 17.5181 3.284 16.4293C3.13067 15.004 3 13.52 3 12C3 10.48 3.13067 8.996 3.284 7.57067C3.40574 6.48191 3.89324 5.46667 4.66682 4.69091C5.44039 3.91516 6.45426 3.4248 7.54267 3.3ZM13.776 6.50933C13.73 6.30983 13.6121 6.13426 13.4449 6.0161C13.2777 5.89795 13.0728 5.84549 12.8694 5.86874C12.666 5.89198 12.4782 5.9893 12.342 6.14212C12.2057 6.29495 12.1305 6.49259 12.1307 6.69733V14.4C12.1307 14.8093 12.0093 15.2094 11.7819 15.5497C11.5545 15.89 11.2314 16.1552 10.8532 16.3118C10.4751 16.4684 10.059 16.5094 9.65763 16.4296C9.25622 16.3497 8.8875 16.1526 8.59809 15.8632C8.30869 15.5738 8.11161 15.2051 8.03176 14.8037C7.95192 14.4023 7.9929 13.9862 8.14952 13.6081C8.30614 13.23 8.57137 12.9068 8.91167 12.6794C9.25197 12.452 9.65206 12.3307 10.0613 12.3307C10.2823 12.3307 10.4943 12.2429 10.6506 12.0866C10.8069 11.9303 10.8947 11.7183 10.8947 11.4973C10.8947 11.2763 10.8069 11.0644 10.6506 10.9081C10.4943 10.7518 10.2823 10.664 10.0613 10.664C9.32242 10.664 8.60011 10.8831 7.98572 11.2936C7.37134 11.7041 6.89249 12.2876 6.60972 12.9703C6.32695 13.653 6.25297 14.4041 6.39712 15.1289C6.54127 15.8536 6.89709 16.5193 7.41958 17.0418C7.94207 17.5642 8.60776 17.9201 9.33248 18.0642C10.0572 18.2084 10.8084 18.1344 11.491 17.8516C12.1737 17.5688 12.7572 17.09 13.1677 16.4756C13.5782 15.8612 13.7973 15.1389 13.7973 14.4V9.74667C14.5973 10.4267 15.6293 10.8 16.84 10.8C17.061 10.8 17.273 10.7122 17.4293 10.5559C17.5855 10.3996 17.6733 10.1877 17.6733 9.96667C17.6733 9.74565 17.5855 9.53369 17.4293 9.37741C17.273 9.22113 17.061 9.13333 16.84 9.13333C15.96 9.13333 15.3067 8.86133 14.8253 8.43333C14.3347 7.996 13.9707 7.34533 13.776 6.50933Z" fill="#FCFCFC"/>
</svg>
