<svg width="20" height="21" viewBox="0 0 20 21" fill="none" xmlns="http://www.w3.org/2000/svg">
<path d="M8.42917 18.6755C8.93417 19.0922 9.46083 19.473 10 19.8447C10.5403 19.4779 11.0644 19.0878 11.5708 18.6755C12.415 17.9824 13.2095 17.2308 13.9483 16.4263C15.6517 14.5638 17.5 11.8638 17.5 8.83301C17.5 7.84809 17.306 6.87282 16.9291 5.96288C16.5522 5.05294 15.9997 4.22615 15.3033 3.52971C14.6069 2.83327 13.7801 2.28082 12.8701 1.90391C11.9602 1.527 10.9849 1.33301 10 1.33301C9.01509 1.33301 8.03982 1.527 7.12987 1.90391C6.21993 2.28082 5.39314 2.83327 4.6967 3.52971C4.00026 4.22615 3.44781 5.05294 3.0709 5.96288C2.69399 6.87282 2.5 7.84809 2.5 8.83301C2.5 11.8638 4.34833 14.563 6.05167 16.4263C6.79052 17.2311 7.58497 17.9821 8.42917 18.6755ZM10 11.5413C9.28171 11.5413 8.59283 11.256 8.08492 10.7481C7.57701 10.2402 7.29167 9.5513 7.29167 8.83301C7.29167 8.11471 7.57701 7.42584 8.08492 6.91793C8.59283 6.41002 9.28171 6.12467 10 6.12467C10.7183 6.12467 11.4072 6.41002 11.9151 6.91793C12.423 7.42584 12.7083 8.11471 12.7083 8.83301C12.7083 9.5513 12.423 10.2402 11.9151 10.7481C11.4072 11.256 10.7183 11.5413 10 11.5413Z" fill="#FCFCFC"/>
</svg>
