<svg width="20" height="21" viewBox="0 0 20 21" fill="none" xmlns="http://www.w3.org/2000/svg">
<path d="M3.86828 4.5H17.1183C18.3683 4.5 18.9983 5.09 18.9983 6.29V14.71C18.9983 15.9 18.3683 16.5 17.1183 16.5H3.86828C2.61828 16.5 1.98828 15.9 1.98828 14.71V6.29C1.98828 5.09 2.61828 4.5 3.86828 4.5ZM10.4883 13.1L17.2283 7.57C17.4683 7.37 17.6583 6.91 17.3583 6.5C17.0683 6.09 16.5383 6.08 16.1883 6.33L10.4883 10.19L4.79828 6.33C4.44828 6.08 3.91828 6.09 3.62828 6.5C3.32828 6.91 3.51828 7.37 3.75828 7.57L10.4883 13.1Z" fill="#FCFCFC"/>
</svg>
