<svg width="84" height="84" viewBox="0 0 84 84" fill="none" xmlns="http://www.w3.org/2000/svg">
<rect width="84" height="84" rx="40" fill="#282828"/>
<path d="M32 37.55V46.45C32 51.9833 35.9167 54.2333 40.7 51.4833L42.8333 50.25C43.35 49.95 43.6667 49.4 43.6667 48.8V35.2C43.6667 34.6 43.35 34.05 42.8333 33.75L40.7 32.5166C35.9167 29.7666 32 32.0166 32 37.55Z" fill="#FBFBFB"/>
<path d="M45.334 36.6496V47.3663C45.334 48.0163 46.034 48.4163 46.584 48.0829L48.4173 47.0163C53.2007 44.2663 53.2007 39.7329 48.4173 36.9829L46.584 35.9163C46.034 35.5996 45.334 35.9996 45.334 36.6496Z" fill="#FBFBFB"/>
</svg>
