<svg width="40" height="40" viewBox="0 0 40 40" fill="none" xmlns="http://www.w3.org/2000/svg">
<path d="M20.0002 14.583C18.5636 14.583 17.1858 15.1537 16.17 16.1695C15.1542 17.1853 14.5835 18.5631 14.5835 19.9997C14.5835 21.4363 15.1542 22.814 16.17 23.8298C17.1858 24.8457 18.5636 25.4163 20.0002 25.4163C21.4368 25.4163 22.8145 24.8457 23.8303 23.8298C24.8461 22.814 25.4168 21.4363 25.4168 19.9997C25.4168 18.5631 24.8461 17.1853 23.8303 16.1695C22.8145 15.1537 21.4368 14.583 20.0002 14.583Z" fill="#FCFCFC"/>
<path fill-rule="evenodd" clip-rule="evenodd" d="M11.4796 5.4705C17.1425 4.84317 22.8574 4.84317 28.5203 5.4705C31.6141 5.81588 34.1083 8.25144 34.4716 11.3566C35.1427 17.0987 35.1427 22.8995 34.4716 28.6417C34.1083 31.7468 31.6141 34.1824 28.522 34.5294C22.8585 35.1569 17.143 35.1569 11.4796 34.5294C8.38583 34.1824 5.89162 31.7468 5.52833 28.6433C4.85709 22.9006 4.85709 17.0993 5.52833 11.3566C5.89162 8.25144 8.38583 5.81588 11.4796 5.4705ZM28.1456 10.2243C27.7136 10.2243 27.2992 10.396 26.9937 10.7015C26.6881 11.007 26.5165 11.4214 26.5165 11.8535C26.5165 12.2855 26.6881 12.6999 26.9937 13.0054C27.2992 13.311 27.7136 13.4826 28.1456 13.4826C28.5777 13.4826 28.9921 13.311 29.2976 13.0054C29.6031 12.6999 29.7748 12.2855 29.7748 11.8535C29.7748 11.4214 29.6031 11.007 29.2976 10.7015C28.9921 10.396 28.5777 10.2243 28.1456 10.2243ZM12.2615 19.9991C12.2615 17.9468 13.0768 15.9785 14.5281 14.5273C15.9793 13.076 17.9476 12.2607 19.9999 12.2607C22.0523 12.2607 24.0206 13.076 25.4718 14.5273C26.923 15.9785 27.7383 17.9468 27.7383 19.9991C27.7383 22.0515 26.923 24.0198 25.4718 25.471C24.0206 26.9222 22.0523 27.7375 19.9999 27.7375C17.9476 27.7375 15.9793 26.9222 14.5281 25.471C13.0768 24.0198 12.2615 22.0515 12.2615 19.9991Z" fill="#FCFCFC"/>
</svg>
