<svg width="24" height="24" viewBox="0 0 24 24" fill="none" xmlns="http://www.w3.org/2000/svg">
<path d="M12 8.75C11.138 8.75 10.3114 9.09241 9.7019 9.7019C9.09241 10.3114 8.75 11.138 8.75 12C8.75 12.862 9.09241 13.6886 9.7019 14.2981C10.3114 14.9076 11.138 15.25 12 15.25C12.862 15.25 13.6886 14.9076 14.2981 14.2981C14.9076 13.6886 15.25 12.862 15.25 12C15.25 11.138 14.9076 10.3114 14.2981 9.7019C13.6886 9.09241 12.862 8.75 12 8.75Z" fill="#FCFCFC"/>
<path fill-rule="evenodd" clip-rule="evenodd" d="M6.88842 3.2823C10.2862 2.9059 13.7151 2.9059 17.1129 3.2823C18.9691 3.48953 20.4656 4.95086 20.6836 6.81394C21.0863 10.2592 21.0863 13.7397 20.6836 17.185C20.4656 19.0481 18.9691 20.5094 17.1139 20.7176C13.7158 21.0941 10.2865 21.0941 6.88842 20.7176C5.03218 20.5094 3.53566 19.0481 3.31768 17.186C2.91494 13.7404 2.91494 10.2596 3.31768 6.81394C3.53566 4.95086 5.03218 3.48953 6.88842 3.2823ZM16.8881 6.13459C16.6288 6.13459 16.3802 6.23758 16.1969 6.42089C16.0136 6.6042 15.9106 6.85283 15.9106 7.11207C15.9106 7.37132 16.0136 7.61994 16.1969 7.80326C16.3802 7.98657 16.6288 8.08956 16.8881 8.08956C17.1473 8.08956 17.3959 7.98657 17.5792 7.80326C17.7626 7.61994 17.8655 7.37132 17.8655 7.11207C17.8655 6.85283 17.7626 6.6042 17.5792 6.42089C17.3959 6.23758 17.1473 6.13459 16.8881 6.13459ZM7.35761 11.9995C7.35761 10.7681 7.84679 9.5871 8.71753 8.71636C9.58827 7.84562 10.7692 7.35644 12.0007 7.35644C13.2321 7.35644 14.413 7.84562 15.2838 8.71636C16.1545 9.5871 16.6437 10.7681 16.6437 11.9995C16.6437 13.2309 16.1545 14.4119 15.2838 15.2826C14.413 16.1533 13.2321 16.6425 12.0007 16.6425C10.7692 16.6425 9.58827 16.1533 8.71753 15.2826C7.84679 14.4119 7.35761 13.2309 7.35761 11.9995Z" fill="#FCFCFC"/>
</svg>
