<svg width="32" height="32" viewBox="0 0 32 32" fill="none" xmlns="http://www.w3.org/2000/svg">
<path d="M14.7327 19.9337L12.266 22.4003C11.746 22.9203 10.9193 22.9203 10.386 22.4137C10.2393 22.267 10.0927 22.1337 9.94602 21.987C8.57268 20.6003 7.33268 19.147 6.22602 17.627C5.13268 16.107 4.25268 14.587 3.61268 13.0803C2.98602 11.5603 2.66602 10.107 2.66602 8.72033C2.66602 7.81366 2.82602 6.94699 3.14602 6.14699C3.46602 5.33366 3.97268 4.58699 4.67935 3.92033C5.53268 3.08033 6.46602 2.66699 7.45268 2.66699C7.82602 2.66699 8.19935 2.74699 8.53268 2.90699C8.87935 3.06699 9.18602 3.30699 9.42602 3.65366L12.5193 8.01366C12.7593 8.34699 12.9327 8.65366 13.0527 8.94699C13.1727 9.22699 13.2393 9.50699 13.2393 9.76033C13.2393 10.0803 13.146 10.4003 12.9593 10.707C12.786 11.0137 12.5327 11.3337 12.2127 11.6537L11.1993 12.707C11.0527 12.8537 10.986 13.027 10.986 13.2403C10.986 13.347 10.9993 13.4403 11.026 13.547C11.066 13.6537 11.106 13.7337 11.1327 13.8137C11.3727 14.2537 11.786 14.827 12.3727 15.5203C12.9727 16.2137 13.6127 16.9203 14.306 17.627C14.4393 17.7603 14.586 17.8937 14.7193 18.027C15.2527 18.547 15.266 19.4003 14.7327 19.9337Z" fill="#D91E1E"/>
<path d="M29.2941 24.4397C29.2941 24.8131 29.2274 25.1997 29.0941 25.5731C29.0541 25.6797 29.0141 25.7864 28.9608 25.8931C28.7341 26.3731 28.4408 26.8264 28.0541 27.2531C27.4008 27.9731 26.6808 28.4931 25.8674 28.8264C25.8541 28.8264 25.8408 28.8397 25.8274 28.8397C25.0408 29.1597 24.1874 29.3331 23.2674 29.3331C21.9074 29.3331 20.4541 29.0131 18.9208 28.3597C17.3874 27.7064 15.8541 26.8264 14.3341 25.7197C13.8141 25.3331 13.2941 24.9464 12.8008 24.5331L17.1608 20.1731C17.5341 20.4531 17.8674 20.6664 18.1474 20.8131C18.2141 20.8397 18.2941 20.8797 18.3874 20.9197C18.4941 20.9597 18.6008 20.9731 18.7208 20.9731C18.9474 20.9731 19.1208 20.8931 19.2674 20.7464L20.2808 19.7464C20.6141 19.4131 20.9341 19.1597 21.2408 18.9997C21.5474 18.8131 21.8541 18.7197 22.1874 18.7197C22.4408 18.7197 22.7074 18.7731 23.0008 18.8931C23.2941 19.0131 23.6008 19.1864 23.9341 19.4131L28.3474 22.5464C28.6941 22.7864 28.9341 23.0664 29.0808 23.3997C29.2141 23.7331 29.2941 24.0664 29.2941 24.4397Z" fill="#D91E1E"/>
</svg>
