<svg width="32" height="32" viewBox="0 0 32 32" fill="none" xmlns="http://www.w3.org/2000/svg">
<path d="M5.73658 4.09353C5.50025 4.1498 5.08387 4.40864 4.80252 4.65622C3.981 5.37646 3.77843 6.50184 4.26234 7.50342C4.36363 7.68348 6.26551 9.67539 8.49375 11.9149L12.5676 16L8.49375 20.0739C6.26551 22.3246 4.36363 24.3053 4.26234 24.4966C3.78968 25.4757 3.95849 26.4772 4.74625 27.2537C5.52276 28.0415 6.52435 28.2103 7.50342 27.7377C7.69473 27.6364 9.67539 25.7345 11.9261 23.5062L16 19.4324L20.0851 23.5062C22.3246 25.7345 24.3165 27.6364 24.4966 27.7377C25.4757 28.2103 26.4772 28.0415 27.2537 27.2537C28.0415 26.4772 28.2103 25.4757 27.7377 24.4966C27.6364 24.3053 25.7345 22.3246 23.5063 20.0739L19.4324 16L23.5063 11.9149C25.7345 9.67539 27.6364 7.68348 27.7377 7.50342C28.2103 6.52435 28.0415 5.52276 27.2537 4.74625C26.4772 3.95849 25.4757 3.78968 24.4966 4.26234C24.3165 4.36362 22.3246 6.26551 20.0851 8.49375L16 12.5676L11.9261 8.49375C9.67539 6.26551 7.68348 4.35237 7.50342 4.26234C7.03076 4.02601 6.23175 3.94724 5.73658 4.09353Z" fill="#D91E1E"/>
</svg>
