<svg width="44" height="24" viewBox="0 0 44 24" fill="none" xmlns="http://www.w3.org/2000/svg">
<rect x="0.5" y="0.5" width="43" height="23.0003" rx="7.5" stroke="#D91E1E"/>
<path d="M27.3667 11.333H16.6333C16.2836 11.333 16 11.6166 16 11.9663V12.033C16 12.3828 16.2836 12.6663 16.6333 12.6663H27.3667C27.7164 12.6663 28 12.3828 28 12.033V11.9663C28 11.6166 27.7164 11.333 27.3667 11.333Z" fill="#D91E1E"/>
<path d="M27.3667 14.667H16.6333C16.2836 14.667 16 14.9505 16 15.3003V15.367C16 15.7168 16.2836 16.0003 16.6333 16.0003H27.3667C27.7164 16.0003 28 15.7168 28 15.367V15.3003C28 14.9505 27.7164 14.667 27.3667 14.667Z" fill="#D91E1E"/>
<path d="M27.3667 8H16.6333C16.2836 8 16 8.28355 16 8.63333V8.7C16 9.04978 16.2836 9.33333 16.6333 9.33333H27.3667C27.7164 9.33333 28 9.04978 28 8.7V8.63333C28 8.28355 27.7164 8 27.3667 8Z" fill="#D91E1E"/>
</svg>
