<svg width="40" height="40" viewBox="0 0 40 40" fill="none" xmlns="http://www.w3.org/2000/svg">
<path d="M26.4166 13.5667C27.0666 13.5667 27.6999 13.6167 28.3166 13.7C27.1832 8.75 21.9832 5 15.7332 5C8.6499 5 2.8999 9.8 2.8999 15.7167C2.8999 19.1333 4.81657 22.15 7.7999 24.1167L6.11657 27.5L10.7166 25.5167C11.6999 25.8667 12.7332 26.15 13.8332 26.3C13.6832 25.65 13.5999 24.9833 13.5999 24.2833C13.5832 18.3833 19.3332 13.5667 26.4166 13.5667ZM19.9999 9.81667C20.21 9.81667 20.4181 9.85805 20.6122 9.93846C20.8063 10.0189 20.9827 10.1367 21.1313 10.2853C21.2798 10.4339 21.3977 10.6103 21.4781 10.8044C21.5585 10.9985 21.5999 11.2066 21.5999 11.4167C21.5999 11.6268 21.5585 11.8348 21.4781 12.029C21.3977 12.2231 21.2798 12.3995 21.1313 12.548C20.9827 12.6966 20.8063 12.8145 20.6122 12.8949C20.4181 12.9753 20.21 13.0167 19.9999 13.0167C19.5756 13.0167 19.1686 12.8481 18.8685 12.548C18.5685 12.248 18.3999 11.841 18.3999 11.4167C18.3999 10.9923 18.5685 10.5854 18.8685 10.2853C19.1686 9.98524 19.5756 9.81667 19.9999 9.81667ZM11.4499 13.0333C11.0256 13.0333 10.6186 12.8648 10.3185 12.5647C10.0185 12.2646 9.8499 11.8577 9.8499 11.4333C9.8499 11.009 10.0185 10.602 10.3185 10.302C10.6186 10.0019 11.0256 9.83333 11.4499 9.83333C11.8742 9.83333 12.2812 10.0019 12.5813 10.302C12.8813 10.602 13.0499 11.009 13.0499 11.4333C13.0499 11.8577 12.8813 12.2646 12.5813 12.5647C12.2812 12.8648 11.8742 13.0333 11.4499 13.0333Z" fill="#FBFBFB"/>
<path d="M37.1001 24.2835C37.1001 19.5501 32.3167 15.7168 26.4167 15.7168C20.5167 15.7168 15.7334 19.5501 15.7334 24.2835C15.7334 29.0168 20.5167 32.8501 26.4167 32.8501C27.3834 32.8501 28.3167 32.7168 29.2001 32.5168L34.9667 35.0001L32.9667 31.0001C35.4667 29.4335 37.1001 27.0335 37.1001 24.2835ZM23.2001 23.7501C22.8836 23.7501 22.5743 23.6563 22.3112 23.4805C22.048 23.3047 21.843 23.0548 21.7219 22.7624C21.6008 22.4701 21.5691 22.1484 21.6308 21.838C21.6925 21.5276 21.8449 21.2425 22.0687 21.0188C22.2925 20.795 22.5776 20.6426 22.8879 20.5809C23.1983 20.5191 23.52 20.5508 23.8124 20.6719C24.1047 20.793 24.3546 20.9981 24.5304 21.2612C24.7062 21.5243 24.8001 21.8337 24.8001 22.1501C24.8167 23.0335 24.0834 23.7501 23.2001 23.7501ZM29.6167 23.7501C29.1924 23.7501 28.7854 23.5816 28.4854 23.2815C28.1853 22.9814 28.0167 22.5745 28.0167 22.1501C28.0167 21.7258 28.1853 21.3188 28.4854 21.0188C28.7854 20.7187 29.1924 20.5501 29.6167 20.5501C30.0411 20.5501 30.448 20.7187 30.7481 21.0188C31.0482 21.3188 31.2167 21.7258 31.2167 22.1501C31.2167 22.5745 31.0482 22.9814 30.7481 23.2815C30.448 23.5816 30.0411 23.7501 29.6167 23.7501Z" fill="#FBFBFB"/>
</svg>
