<svg width="98" height="40" viewBox="0 0 98 40" fill="none" xmlns="http://www.w3.org/2000/svg">
<g clip-path="url(#clip0_151_726)">
<path d="M18.8241 0.0241222C18.8241 0.271841 18.5657 1.92572 18.4475 2.40658C17.8789 4.83275 16.9263 6.37734 15.6267 6.98935C14.8587 7.35364 14.6963 7.34635 13.6477 6.93106C13.1456 6.73434 12.3481 6.40648 11.8828 6.20248C11.4176 5.99848 11.0263 5.8309 11.0189 5.8309C11.0041 5.8309 11.0706 5.98391 11.1666 6.17334C11.7425 7.30264 12.3924 9.3718 13.2859 12.8981C13.8102 14.9673 14.2458 16.8616 14.2458 17.051C14.2458 17.1676 13.9652 17.1312 13.6551 16.9782C12.7542 16.5265 10.3912 14.2533 7.96914 11.5138C7.62946 11.135 7.3267 10.8071 7.28978 10.7998C7.26024 10.7852 7.22332 11.1641 7.22332 11.6377C7.20855 13.1823 7.13471 13.9546 7.00917 13.94C6.9501 13.9254 5.65784 13.6704 4.13666 13.3717C2.62287 13.0657 1.36754 12.8326 1.35277 12.8471C1.33061 12.869 1.84752 15.4263 2.57857 18.8361C2.65241 19.1931 2.69672 19.5136 2.66718 19.5355C2.63764 19.5573 2.05428 19.7176 1.36015 19.8925C0.673408 20.0674 0.0605072 20.2276 0.0162012 20.2495C-0.0428736 20.2786 0.0605072 20.3952 0.311575 20.5555C0.518336 20.6939 2.03213 21.7139 3.66407 22.8214C5.28862 23.9361 6.9501 25.0654 7.35624 25.335C7.75499 25.6046 8.47127 26.0927 8.94387 26.4206C10.118 27.222 10.2361 27.2512 11.3733 27.0034C14.3787 26.3404 17.3694 24.7084 19.533 22.5445C21.9772 20.0965 23.8824 16.7887 25.0787 12.8981C25.6768 10.982 25.8466 10.2534 26.1642 8.3445C26.3561 7.23706 26.5408 5.69247 26.4891 5.64876C26.4743 5.63419 24.2368 6.9092 23.3581 7.44106L23.1218 7.5795L22.5754 6.61777C22.2652 6.08591 21.6302 4.94204 21.1502 4.08231C19.8505 1.74357 18.8906 0.0459805 18.8537 0.009552C18.8389 -0.00502014 18.8241 -0.00502014 18.8241 0.0241222Z" fill="#FBFBFB"/>
<path d="M32.387 10.9393C28.5521 13.86 25.53 16.9918 23.2616 20.3932C20.9489 23.8674 19.4194 27.7276 19.0277 31.0416C18.9908 31.3329 18.9686 31.5732 18.976 31.5732C18.9834 31.5732 19.3233 31.2455 19.7223 30.8376C20.8307 29.7233 22.0203 29.0095 23.2616 28.6963C23.838 28.5506 25.0424 28.5579 25.6335 28.7036L26.0916 28.8128L27.1187 28.1573C27.6802 27.8004 28.5743 27.225 29.0989 26.89C29.9782 26.3219 30.4437 26.0306 32.5717 24.6686C33.6062 24.0058 34.1086 23.6853 35.3795 22.8696C36.5618 22.1194 37.2194 21.6896 38.2095 21.0633L38.8228 20.67L38.5051 20.5826C38.0765 20.4587 37.0716 19.8469 36.6061 19.4391C35.8894 18.8054 35.6308 18.1135 35.7859 17.2395C35.8968 16.5985 36.3918 15.5861 36.9534 14.8578C37.3746 14.3042 38.4238 13.2481 38.8154 12.9787L39.0001 12.8548L38.7785 12.884C38.1061 13.0005 32.8156 13.5905 32.786 13.5613C32.7639 13.5468 32.8821 12.7893 33.0372 11.8789C33.1998 10.9757 33.3254 10.2328 33.318 10.2328C33.3106 10.2328 32.8969 10.546 32.387 10.9393Z" fill="#FBFBFB"/>
<path d="M19.6934 39.9997C21.3253 36.033 27.3551 32.9144 34.4083 33.8173L31.8637 30.4801C25.4466 29.5227 19.6105 35.0757 19.6105 35.0757C19.6105 35.0757 16.4296 29.6047 7.13599 30.4801L4.59131 33.8173C11.6722 32.8872 18.0892 36.1152 19.6934 39.9997Z" fill="#FBFBFB"/>
<path d="M48.1001 19.2913V11.852H47V10.0837H51.053V11.852H49.9529V19.2913H48.1001Z" fill="white"/>
<path d="M50.9982 19.2913V10.0837H52.9352V12.2234C53.037 11.9305 53.1931 11.7142 53.4037 11.5747C53.6142 11.4317 53.8599 11.3602 54.1406 11.3602C54.688 11.3602 55.0863 11.5311 55.3354 11.8729C55.5846 12.2147 55.7091 12.6733 55.7091 13.2488V19.2913H53.8037V13.3691C53.8037 13.1982 53.7669 13.0587 53.6932 12.9506C53.623 12.8425 53.5107 12.7884 53.3563 12.7884C53.2265 12.7884 53.1229 12.8442 53.0458 12.9558C52.9721 13.0675 52.9352 13.2 52.9352 13.3534V19.2913H50.9982Z" fill="white"/>
<path d="M58.123 19.375C57.5616 19.375 57.1141 19.2704 56.7808 19.0611C56.4474 18.8518 56.2088 18.5502 56.0649 18.156C55.9211 17.7619 55.8491 17.2876 55.8491 16.733V13.5784C55.8491 12.8495 56.0597 12.2984 56.4808 11.9252C56.9018 11.5485 57.4808 11.3602 58.2177 11.3602C59.7337 11.3602 60.4916 12.0996 60.4916 13.5784V14.1486C60.4916 14.8392 60.4846 15.3031 60.4706 15.5402H57.7335V17.0574C57.7335 17.1969 57.7423 17.3347 57.7598 17.4707C57.7774 17.6032 57.816 17.7131 57.8756 17.8003C57.9388 17.8875 58.0388 17.9311 58.1756 17.9311C58.3721 17.9311 58.495 17.8474 58.5441 17.68C58.5932 17.5091 58.6178 17.2876 58.6178 17.0156V16.2622H60.4916V16.7069C60.4916 17.2928 60.4179 17.7846 60.2705 18.1822C60.1267 18.5763 59.881 18.8745 59.5336 19.0768C59.1898 19.2756 58.7195 19.375 58.123 19.375ZM57.723 14.609H58.6178V13.5522C58.6178 13.2697 58.5827 13.0675 58.5125 12.9454C58.4423 12.8198 58.3371 12.757 58.1967 12.757C58.0458 12.757 57.9282 12.8163 57.844 12.9349C57.7633 13.0535 57.723 13.2593 57.723 13.5522V14.609Z" fill="white"/>
<path d="M64.8141 19.375C64.1438 19.375 63.6034 19.1675 63.1929 18.7524C62.7858 18.3374 62.5823 17.7567 62.5823 17.0103V12.7623C62.5823 11.8694 62.7595 11.1858 63.1139 10.7115C63.4719 10.2372 64.0526 10 64.8562 10C65.2948 10 65.6843 10.0802 66.0247 10.2407C66.3686 10.4011 66.6388 10.6417 66.8353 10.9626C67.0318 11.28 67.13 11.6811 67.13 12.1659V13.7563H65.2878V12.3961C65.2878 12.1205 65.2527 11.9357 65.1825 11.8415C65.1123 11.7439 65.0036 11.695 64.8562 11.695C64.6842 11.695 64.5684 11.7578 64.5088 11.8834C64.4491 12.0054 64.4193 12.1694 64.4193 12.3751V16.9842C64.4193 17.2388 64.4561 17.4184 64.5298 17.523C64.607 17.6277 64.7158 17.68 64.8562 17.68C65.0141 17.68 65.1246 17.6154 65.1878 17.4864C65.2545 17.3574 65.2878 17.1899 65.2878 16.9842V15.3258H67.1511V17.0679C67.1511 17.877 66.9458 18.4647 66.5353 18.8309C66.1247 19.1936 65.551 19.375 64.8141 19.375Z" fill="white"/>
<path d="M66.9806 19.2913L67.8754 10.0837H71.0177L71.8967 19.2913H70.144L70.0124 17.8055H68.8965L68.7807 19.2913H66.9806ZM69.0281 16.3354H69.8703L69.465 11.6532H69.3808L69.0281 16.3354Z" fill="white"/>
<path d="M71.9262 19.2913V10.0837H73.8316L74.6843 14.4939V10.0837H76.474V19.2913H74.6633L73.7369 14.6875V19.2913H71.9262Z" fill="white"/>
<path d="M76.5034 19.2913L77.3982 10.0837H80.5406L81.4196 19.2913H79.6668L79.5353 17.8055H78.4194L78.3036 19.2913H76.5034ZM78.551 16.3354H79.3931L78.9878 11.6532H78.9036L78.551 16.3354Z" fill="white"/>
<path d="M81.4491 19.2913V10.0837H83.9967C84.6634 10.0837 85.1652 10.2686 85.502 10.6383C85.8389 11.0045 86.0074 11.5416 86.0074 12.2496V16.5604C86.0074 17.4323 85.853 18.1055 85.5442 18.5798C85.2389 19.0541 84.702 19.2913 83.9335 19.2913H81.4491ZM83.3124 17.6643H83.6335C83.9739 17.6643 84.144 17.5003 84.144 17.1725V12.4222C84.144 12.1153 84.1019 11.9182 84.0177 11.8311C83.937 11.7404 83.7703 11.695 83.5177 11.695H83.3124V17.6643Z" fill="white"/>
<path d="M86.1421 19.2913V10.0837H87.9317V19.2913H86.1421Z" fill="white"/>
<path d="M87.877 19.2913L88.7718 10.0837H91.9141L92.7932 19.2913H91.0404L90.9088 17.8055H89.7929L89.6771 19.2913H87.877ZM89.9245 16.3354H90.7667L90.3614 11.6532H90.2772L89.9245 16.3354Z" fill="white"/>
<path d="M92.8226 19.2913V10.0837H94.7281L95.5808 14.4939V10.0837H97.3704V19.2913H95.5597L94.6333 14.6875V19.2913H92.8226Z" fill="white"/>
<path d="M47 29.9163L48.3135 20.7087H52.9263L54.2166 29.9163H51.6437L51.4505 28.4305H49.8125L49.6425 29.9163H47ZM50.0056 26.9604H51.2419L50.6469 22.2782H50.5233L50.0056 26.9604Z" fill="white"/>
<path d="M57.4278 30C56.4439 30 55.6507 29.7925 55.048 29.3774C54.4505 28.9624 54.1517 28.3817 54.1517 27.6353V23.3873C54.1517 22.4944 54.4118 21.8108 54.9321 21.3365C55.4575 20.8622 56.31 20.625 57.4896 20.625C58.1335 20.625 58.7052 20.7052 59.2049 20.8657C59.7097 21.0261 60.1063 21.2667 60.3948 21.5876C60.6832 21.905 60.8275 22.3061 60.8275 22.7909V24.3813H58.1232V23.0211C58.1232 22.7455 58.0717 22.5607 57.9686 22.4665C57.8656 22.3689 57.7059 22.32 57.4896 22.32C57.2372 22.32 57.0672 22.3828 56.9796 22.5084C56.8921 22.6304 56.8483 22.7944 56.8483 23.0001V27.6092C56.8483 27.8638 56.9024 28.0434 57.0105 28.148C57.1239 28.2527 57.2835 28.305 57.4896 28.305C57.7214 28.305 57.8836 28.2404 57.9764 28.1114C58.0742 27.9824 58.1232 27.8149 58.1232 27.6092V25.9508H60.8584V27.6929C60.8584 28.502 60.557 29.0897 59.9544 29.4559C59.3517 29.8186 58.5095 30 57.4278 30Z" fill="white"/>
<path d="M60.608 29.9163L61.9216 20.7087H66.5343L67.8247 29.9163H65.2517L65.0585 28.4305H63.4205L63.2505 29.9163H60.608ZM63.6137 26.9604H64.8499L64.255 22.2782H64.1314L63.6137 26.9604Z" fill="white"/>
<path d="M67.8679 29.9163V20.7087H71.6076C72.5863 20.7087 73.3229 20.8936 73.8174 21.2633C74.3119 21.6295 74.5591 22.1666 74.5591 22.8746V27.1854C74.5591 28.0573 74.3325 28.7305 73.8792 29.2048C73.4311 29.6791 72.6429 29.9163 71.5149 29.9163H67.8679ZM70.6031 28.2893H71.0744C71.5741 28.2893 71.8239 28.1253 71.8239 27.7975V23.0472C71.8239 22.7403 71.7621 22.5432 71.6385 22.4561C71.52 22.3654 71.2753 22.32 70.9045 22.32H70.6031V28.2893Z" fill="white"/>
<path d="M74.8806 29.9163V20.7087H80.3201V22.4874H77.6467V24.2819H80.2119V26.0135H77.6467V28.1219H80.4978V29.9163H74.8806Z" fill="white"/>
<path d="M80.6106 29.9163V20.7087H84.752L85.8956 26.3222L87.0314 20.7087H91.2114V29.9163H88.7235V23.2826L87.1627 29.9163H84.7211L83.0676 23.2826V29.9163H80.6106Z" fill="white"/>
<path d="M93.2713 29.9163V26.8872L91.1002 20.7087H93.7967L94.5539 23.8267L95.3112 20.7087H98L95.8366 26.8872V29.9163H93.2713Z" fill="white"/>
</g>
<defs>
<clipPath id="clip0_151_726">
<rect width="98" height="40" fill="white"/>
</clipPath>
</defs>
</svg>
