<svg width="40" height="40" viewBox="0 0 40 40" fill="none" xmlns="http://www.w3.org/2000/svg">
<path d="M20 5C11.75 5 5 11.762 5 20.0904C5 27.6205 10.49 33.8705 17.66 35V24.4578H13.85V20.0904H17.66V16.762C17.66 12.9819 19.895 10.9036 23.33 10.9036C24.965 10.9036 26.675 11.1898 26.675 11.1898V14.9096H24.785C22.925 14.9096 22.34 16.0693 22.34 17.259V20.0904H26.51L25.835 24.4578H22.34V35C25.8746 34.4395 29.0933 32.6288 31.4149 29.8947C33.7364 27.1606 35.008 23.6832 35 20.0904C35 11.762 28.25 5 20 5Z" fill="#FCFCFC"/>
</svg>
