<svg width="32" height="32" viewBox="0 0 32 32" fill="none" xmlns="http://www.w3.org/2000/svg">
<path d="M22.666 2.66699H9.33268C5.65268 2.66699 2.66602 5.64033 2.66602 9.30699V17.2803V18.6137C2.66602 22.2803 5.65268 25.2537 9.33268 25.2537H11.3327C11.6927 25.2537 12.1727 25.4937 12.3993 25.787L14.3993 28.4403C15.2793 29.6137 16.7193 29.6137 17.5993 28.4403L19.5993 25.787C19.8527 25.4537 20.2527 25.2537 20.666 25.2537H22.666C26.346 25.2537 29.3327 22.2803 29.3327 18.6137V9.30699C29.3327 5.64033 26.346 2.66699 22.666 2.66699ZM17.3327 18.3337H9.33268C8.78602 18.3337 8.33268 17.8803 8.33268 17.3337C8.33268 16.787 8.78602 16.3337 9.33268 16.3337H17.3327C17.8793 16.3337 18.3327 16.787 18.3327 17.3337C18.3327 17.8803 17.8793 18.3337 17.3327 18.3337ZM22.666 11.667H9.33268C8.78602 11.667 8.33268 11.2137 8.33268 10.667C8.33268 10.1203 8.78602 9.66699 9.33268 9.66699H22.666C23.2127 9.66699 23.666 10.1203 23.666 10.667C23.666 11.2137 23.2127 11.667 22.666 11.667Z" fill="#D91E1E"/>
</svg>
