<svg width="32" height="32" viewBox="0 0 32 32" fill="none" xmlns="http://www.w3.org/2000/svg">
<path fill-rule="evenodd" clip-rule="evenodd" d="M15.9993 2.66602C8.63535 2.66602 2.66602 8.63535 2.66602 15.9993C2.66602 18.5193 3.36602 20.8793 4.58335 22.89L3.39402 26.9327C3.32573 27.1648 3.32124 27.411 3.38101 27.6455C3.44078 27.8799 3.56261 28.0939 3.73369 28.265C3.90478 28.4361 4.11879 28.5579 4.35324 28.6177C4.58768 28.6775 4.83391 28.673 5.06602 28.6047L9.10868 27.4153C11.187 28.6726 13.5703 29.3358 15.9993 29.3327C23.3633 29.3327 29.3327 23.3633 29.3327 15.9993C29.3327 8.63535 23.3633 2.66602 15.9993 2.66602ZM12.9833 19.0167C15.6807 21.7127 18.2553 22.0687 19.1647 22.102C20.5473 22.1527 21.894 21.0967 22.418 19.8713C22.4836 19.7188 22.5073 19.5515 22.4867 19.3867C22.4661 19.222 22.4019 19.0657 22.3007 18.934C21.57 18.0007 20.582 17.33 19.6167 16.6633C19.4152 16.5237 19.1675 16.4676 18.9255 16.5069C18.6835 16.5461 18.4662 16.6778 18.3193 16.874L17.5193 18.094C17.4771 18.1594 17.4115 18.2062 17.336 18.225C17.2605 18.2438 17.1807 18.2332 17.1127 18.1953C16.57 17.8847 15.7793 17.3567 15.2113 16.7887C14.6433 16.2207 14.1473 15.466 13.8687 14.958C13.835 14.8933 13.8254 14.8187 13.8418 14.7475C13.8582 14.6764 13.8994 14.6135 13.958 14.57L15.19 13.6553C15.3663 13.5028 15.4802 13.2906 15.5097 13.0593C15.5392 12.828 15.4824 12.594 15.35 12.402C14.7527 11.5273 14.0567 10.4153 13.0473 9.67802C12.9168 9.58423 12.7643 9.52574 12.6045 9.50822C12.4447 9.4907 12.2831 9.51474 12.1353 9.57802C10.9087 10.1033 9.84735 11.45 9.89802 12.8353C9.93135 13.7447 10.2873 16.3193 12.9833 19.0167Z" fill="#D91E1E"/>
</svg>
