<svg width="440" height="180" viewBox="0 0 440 180" fill="none" xmlns="http://www.w3.org/2000/svg">
<g filter="url(#filter0_n_223_4226)">
<path d="M14.5 1.47949C63.1045 1.47949 102.521 41.1038 102.521 90C102.521 138.896 63.1045 178.521 14.5 178.521C-34.1045 178.521 -73.5205 138.896 -73.5205 90C-73.5205 41.1038 -34.1045 1.47949 14.5 1.47949Z" stroke="url(#paint0_linear_223_4226)" stroke-width="2.9593"/>
</g>
<g filter="url(#filter1_n_223_4226)">
<circle cx="0.638718" cy="89.6094" r="45.8692" fill="url(#paint1_linear_223_4226)"/>
</g>
<circle cx="77.3246" cy="151.916" r="3.94574" fill="#B60000"/>
<circle cx="100.719" cy="72.7514" r="3.94574" fill="#B60000"/>
<circle cx="99.0786" cy="113.872" r="3.94574" fill="#B60000"/>
<circle cx="76.9457" cy="28.9457" r="3.94574" fill="#B60000"/>
<path d="M110.546 35L115.012 25.13H116.048L120.514 35H119.324L118.176 32.41H112.842L111.68 35H110.546ZM113.276 31.402H117.742L115.516 26.418L113.276 31.402ZM124.471 35.168C122.357 35.168 120.761 33.446 120.761 31.416V31.388C120.761 29.344 122.357 27.608 124.471 27.608C125.843 27.608 126.697 28.182 127.369 28.896L126.655 29.652C126.081 29.05 125.437 28.56 124.457 28.56C122.987 28.56 121.867 29.806 121.867 31.36V31.388C121.867 32.956 123.015 34.202 124.527 34.202C125.451 34.202 126.165 33.74 126.739 33.124L127.425 33.768C126.697 34.58 125.829 35.168 124.471 35.168ZM130.663 35.154C129.319 35.154 127.961 34.384 127.961 32.9V32.872C127.961 31.346 129.221 30.534 131.055 30.534C131.979 30.534 132.637 30.66 133.281 30.842V30.59C133.281 29.288 132.483 28.616 131.125 28.616C130.271 28.616 129.599 28.84 128.927 29.148L128.605 28.266C129.403 27.902 130.187 27.664 131.237 27.664C132.259 27.664 133.043 27.93 133.575 28.462C134.065 28.952 134.317 29.652 134.317 30.576V35H133.281V33.908C132.777 34.566 131.937 35.154 130.663 35.154ZM130.873 34.3C132.203 34.3 133.295 33.488 133.295 32.34V31.64C132.763 31.486 132.049 31.332 131.167 31.332C129.809 31.332 129.053 31.92 129.053 32.83V32.858C129.053 33.768 129.893 34.3 130.873 34.3ZM138.953 35.154C137.217 35.154 135.495 33.782 135.495 31.402V31.374C135.495 29.008 137.217 27.608 138.953 27.608C140.297 27.608 141.165 28.336 141.725 29.148V24.78H142.803V35H141.725V33.544C141.137 34.412 140.283 35.154 138.953 35.154ZM139.149 34.188C140.493 34.188 141.767 33.054 141.767 31.388V31.36C141.767 29.694 140.493 28.574 139.149 28.574C137.749 28.574 136.601 29.61 136.601 31.36V31.388C136.601 33.096 137.791 34.188 139.149 34.188ZM147.675 35.168C145.687 35.168 144.063 33.642 144.063 31.402V31.374C144.063 29.288 145.533 27.608 147.535 27.608C149.677 27.608 150.909 29.316 150.909 31.43C150.909 31.57 150.909 31.654 150.895 31.78H145.155C145.309 33.348 146.415 34.23 147.703 34.23C148.697 34.23 149.397 33.824 149.985 33.208L150.657 33.81C149.929 34.622 149.047 35.168 147.675 35.168ZM145.155 30.982H149.817C149.705 29.666 148.949 28.518 147.507 28.518C146.247 28.518 145.295 29.568 145.155 30.982ZM152.097 35V27.762H153.175V28.98C153.651 28.266 154.295 27.608 155.513 27.608C156.689 27.608 157.445 28.238 157.837 29.05C158.355 28.252 159.125 27.608 160.385 27.608C162.051 27.608 163.073 28.728 163.073 30.52V35H161.995V30.772C161.995 29.372 161.295 28.588 160.119 28.588C159.027 28.588 158.131 29.4 158.131 30.828V35H157.053V30.744C157.053 29.386 156.339 28.588 155.191 28.588C154.043 28.588 153.175 29.54 153.175 30.87V35H152.097ZM164.741 26.18V24.99H165.973V26.18H164.741ZM164.811 35V27.762H165.889V35H164.811ZM170.953 35.168C168.839 35.168 167.243 33.446 167.243 31.416V31.388C167.243 29.344 168.839 27.608 170.953 27.608C172.325 27.608 173.179 28.182 173.851 28.896L173.137 29.652C172.563 29.05 171.919 28.56 170.939 28.56C169.469 28.56 168.349 29.806 168.349 31.36V31.388C168.349 32.956 169.497 34.202 171.009 34.202C171.933 34.202 172.647 33.74 173.221 33.124L173.907 33.768C173.179 34.58 172.311 35.168 170.953 35.168ZM178.668 35V25.2H185.752V26.208H179.774V29.554H185.122V30.562H179.774V33.992H185.822V35H178.668ZM187.165 35V27.762H188.243V28.98C188.719 28.266 189.363 27.608 190.581 27.608C191.757 27.608 192.513 28.238 192.905 29.05C193.423 28.252 194.193 27.608 195.453 27.608C197.119 27.608 198.141 28.728 198.141 30.52V35H197.063V30.772C197.063 29.372 196.363 28.588 195.187 28.588C194.095 28.588 193.199 29.4 193.199 30.828V35H192.121V30.744C192.121 29.386 191.407 28.588 190.259 28.588C189.111 28.588 188.243 29.54 188.243 30.87V35H187.165ZM199.781 37.24V27.762H200.859V29.218C201.447 28.35 202.301 27.608 203.631 27.608C205.367 27.608 207.089 28.98 207.089 31.36V31.388C207.089 33.754 205.381 35.154 203.631 35.154C202.287 35.154 201.419 34.426 200.859 33.614V37.24H199.781ZM203.435 34.188C204.835 34.188 205.983 33.152 205.983 31.402V31.374C205.983 29.666 204.807 28.574 203.435 28.574C202.091 28.574 200.817 29.708 200.817 31.36V31.388C200.817 33.068 202.091 34.188 203.435 34.188ZM211.682 35.168C209.512 35.168 207.93 33.46 207.93 31.416V31.388C207.93 29.344 209.526 27.608 211.71 27.608C213.88 27.608 215.476 29.316 215.476 31.36V31.388C215.476 33.432 213.866 35.168 211.682 35.168ZM211.71 34.202C213.278 34.202 214.37 32.942 214.37 31.416V31.388C214.37 29.834 213.208 28.56 211.682 28.56C210.114 28.56 209.036 29.834 209.036 31.36V31.388C209.036 32.942 210.184 34.202 211.71 34.202ZM218.292 35.056L215.758 27.762H216.906L218.81 33.572L220.756 27.734H221.652L223.612 33.572L225.516 27.762H226.636L224.088 35.056H223.15L221.204 29.344L219.244 35.056H218.292ZM230.541 35.168C228.553 35.168 226.929 33.642 226.929 31.402V31.374C226.929 29.288 228.399 27.608 230.401 27.608C232.543 27.608 233.775 29.316 233.775 31.43C233.775 31.57 233.775 31.654 233.761 31.78H228.021C228.175 33.348 229.281 34.23 230.569 34.23C231.563 34.23 232.263 33.824 232.851 33.208L233.523 33.81C232.795 34.622 231.913 35.168 230.541 35.168ZM228.021 30.982H232.683C232.571 29.666 231.815 28.518 230.373 28.518C229.113 28.518 228.161 29.568 228.021 30.982ZM234.962 35V27.762H236.04V29.652C236.572 28.448 237.622 27.58 238.994 27.636V28.798H238.91C237.328 28.798 236.04 29.932 236.04 32.116V35H234.962ZM239.936 35V27.762H241.014V28.98C241.49 28.266 242.134 27.608 243.352 27.608C244.528 27.608 245.284 28.238 245.676 29.05C246.194 28.252 246.964 27.608 248.224 27.608C249.89 27.608 250.912 28.728 250.912 30.52V35H249.834V30.772C249.834 29.372 249.134 28.588 247.958 28.588C246.866 28.588 245.97 29.4 245.97 30.828V35H244.892V30.744C244.892 29.386 244.178 28.588 243.03 28.588C241.882 28.588 241.014 29.54 241.014 30.87V35H239.936ZM255.716 35.168C253.728 35.168 252.104 33.642 252.104 31.402V31.374C252.104 29.288 253.574 27.608 255.576 27.608C257.718 27.608 258.95 29.316 258.95 31.43C258.95 31.57 258.95 31.654 258.936 31.78H253.196C253.35 33.348 254.456 34.23 255.744 34.23C256.738 34.23 257.438 33.824 258.026 33.208L258.698 33.81C257.97 34.622 257.088 35.168 255.716 35.168ZM253.196 30.982H257.858C257.746 29.666 256.99 28.518 255.548 28.518C254.288 28.518 253.336 29.568 253.196 30.982ZM260.137 35V27.762H261.215V29.022C261.691 28.238 262.447 27.608 263.693 27.608C265.443 27.608 266.465 28.784 266.465 30.506V35H265.387V30.772C265.387 29.428 264.659 28.588 263.385 28.588C262.139 28.588 261.215 29.498 261.215 30.856V35H260.137ZM270.486 35.126C269.324 35.126 268.442 34.552 268.442 33.082V28.714H267.434V27.762H268.442V25.578H269.52V27.762H271.816V28.714H269.52V32.942C269.52 33.824 270.01 34.146 270.738 34.146C271.102 34.146 271.41 34.076 271.788 33.894V34.818C271.41 35.014 271.004 35.126 270.486 35.126Z" fill="black"/>
<path d="M136.386 76V66.2H137.492V74.978H143.008V76H136.386ZM146.328 76.154C144.984 76.154 143.626 75.384 143.626 73.9V73.872C143.626 72.346 144.886 71.534 146.72 71.534C147.644 71.534 148.302 71.66 148.946 71.842V71.59C148.946 70.288 148.148 69.616 146.79 69.616C145.936 69.616 145.264 69.84 144.592 70.148L144.27 69.266C145.068 68.902 145.852 68.664 146.902 68.664C147.924 68.664 148.708 68.93 149.24 69.462C149.73 69.952 149.982 70.652 149.982 71.576V76H148.946V74.908C148.442 75.566 147.602 76.154 146.328 76.154ZM146.538 75.3C147.868 75.3 148.96 74.488 148.96 73.34V72.64C148.428 72.486 147.714 72.332 146.832 72.332C145.474 72.332 144.718 72.92 144.718 73.83V73.858C144.718 74.768 145.558 75.3 146.538 75.3ZM151.579 76V68.762H152.657V70.022C153.133 69.238 153.889 68.608 155.135 68.608C156.885 68.608 157.907 69.784 157.907 71.506V76H156.829V71.772C156.829 70.428 156.101 69.588 154.827 69.588C153.581 69.588 152.657 70.498 152.657 71.856V76H151.579ZM162.712 78.268C161.508 78.268 160.388 77.932 159.422 77.26L159.912 76.42C160.738 77.022 161.662 77.344 162.698 77.344C164.294 77.344 165.33 76.462 165.33 74.768V73.914C164.7 74.754 163.818 75.44 162.488 75.44C160.752 75.44 159.086 74.138 159.086 72.052V72.024C159.086 69.91 160.766 68.608 162.488 68.608C163.846 68.608 164.728 69.28 165.316 70.064V68.762H166.394V74.74C166.394 75.86 166.058 76.714 165.47 77.302C164.826 77.946 163.86 78.268 162.712 78.268ZM162.698 74.488C164.07 74.488 165.358 73.494 165.358 72.038V72.01C165.358 70.526 164.07 69.56 162.698 69.56C161.326 69.56 160.192 70.512 160.192 71.996V72.024C160.192 73.48 161.354 74.488 162.698 74.488ZM170.763 76.154C169.013 76.154 167.991 74.978 167.991 73.256V68.762H169.069V72.99C169.069 74.334 169.797 75.174 171.071 75.174C172.303 75.174 173.241 74.264 173.241 72.906V68.762H174.305V76H173.241V74.74C172.751 75.524 172.009 76.154 170.763 76.154ZM178.186 76.154C176.842 76.154 175.484 75.384 175.484 73.9V73.872C175.484 72.346 176.744 71.534 178.578 71.534C179.502 71.534 180.16 71.66 180.804 71.842V71.59C180.804 70.288 180.006 69.616 178.648 69.616C177.794 69.616 177.122 69.84 176.45 70.148L176.128 69.266C176.926 68.902 177.71 68.664 178.76 68.664C179.782 68.664 180.566 68.93 181.098 69.462C181.588 69.952 181.84 70.652 181.84 71.576V76H180.804V74.908C180.3 75.566 179.46 76.154 178.186 76.154ZM178.396 75.3C179.726 75.3 180.818 74.488 180.818 73.34V72.64C180.286 72.486 179.572 72.332 178.69 72.332C177.332 72.332 176.576 72.92 176.576 73.83V73.858C176.576 74.768 177.416 75.3 178.396 75.3ZM186.644 78.268C185.44 78.268 184.32 77.932 183.354 77.26L183.844 76.42C184.67 77.022 185.594 77.344 186.63 77.344C188.226 77.344 189.262 76.462 189.262 74.768V73.914C188.632 74.754 187.75 75.44 186.42 75.44C184.684 75.44 183.018 74.138 183.018 72.052V72.024C183.018 69.91 184.698 68.608 186.42 68.608C187.778 68.608 188.66 69.28 189.248 70.064V68.762H190.326V74.74C190.326 75.86 189.99 76.714 189.402 77.302C188.758 77.946 187.792 78.268 186.644 78.268ZM186.63 74.488C188.002 74.488 189.29 73.494 189.29 72.038V72.01C189.29 70.526 188.002 69.56 186.63 69.56C185.258 69.56 184.124 70.512 184.124 71.996V72.024C184.124 73.48 185.286 74.488 186.63 74.488ZM195.198 76.168C193.21 76.168 191.586 74.642 191.586 72.402V72.374C191.586 70.288 193.056 68.608 195.058 68.608C197.2 68.608 198.432 70.316 198.432 72.43C198.432 72.57 198.432 72.654 198.418 72.78H192.678C192.832 74.348 193.938 75.23 195.226 75.23C196.22 75.23 196.92 74.824 197.508 74.208L198.18 74.81C197.452 75.622 196.57 76.168 195.198 76.168ZM192.678 71.982H197.34C197.228 70.666 196.472 69.518 195.03 69.518C193.77 69.518 192.818 70.568 192.678 71.982ZM210.369 76.196L208.829 74.614C207.933 75.58 206.897 76.14 205.623 76.14C203.859 76.14 202.543 75.034 202.543 73.396V73.368C202.543 72.066 203.411 71.128 204.909 70.54C204.237 69.756 203.929 69.154 203.929 68.384V68.356C203.929 67.068 204.965 66.032 206.519 66.032C207.891 66.032 208.899 67.026 208.899 68.244V68.272C208.899 69.518 208.017 70.316 206.589 70.82L208.829 73.102C209.263 72.472 209.655 71.73 210.005 70.918L210.915 71.338C210.481 72.262 210.033 73.102 209.501 73.802L211.209 75.552L210.369 76.196ZM205.973 70.19C207.219 69.77 207.863 69.168 207.863 68.328V68.3C207.863 67.516 207.275 66.942 206.477 66.942C205.595 66.942 204.993 67.558 204.993 68.356V68.384C204.993 68.958 205.231 69.392 205.973 70.19ZM205.707 75.202C206.631 75.202 207.443 74.712 208.157 73.928L205.539 71.226C204.237 71.702 203.663 72.5 203.663 73.326V73.354C203.663 74.404 204.503 75.202 205.707 75.202ZM220.324 76.168C217.496 76.168 215.41 73.942 215.41 71.128V71.1C215.41 68.328 217.482 66.032 220.366 66.032C222.144 66.032 223.208 66.662 224.188 67.586L223.432 68.398C222.606 67.614 221.682 67.054 220.352 67.054C218.182 67.054 216.558 68.818 216.558 71.072V71.1C216.558 73.368 218.196 75.146 220.352 75.146C221.696 75.146 222.578 74.628 223.516 73.732L224.244 74.446C223.222 75.482 222.102 76.168 220.324 76.168ZM228.465 76.168C226.295 76.168 224.713 74.46 224.713 72.416V72.388C224.713 70.344 226.309 68.608 228.493 68.608C230.663 68.608 232.259 70.316 232.259 72.36V72.388C232.259 74.432 230.649 76.168 228.465 76.168ZM228.493 75.202C230.061 75.202 231.153 73.942 231.153 72.416V72.388C231.153 70.834 229.991 69.56 228.465 69.56C226.897 69.56 225.819 70.834 225.819 72.36V72.388C225.819 73.942 226.967 75.202 228.493 75.202ZM233.512 76V68.762H234.59V69.98C235.066 69.266 235.71 68.608 236.928 68.608C238.104 68.608 238.86 69.238 239.252 70.05C239.77 69.252 240.54 68.608 241.8 68.608C243.466 68.608 244.488 69.728 244.488 71.52V76H243.41V71.772C243.41 70.372 242.71 69.588 241.534 69.588C240.442 69.588 239.546 70.4 239.546 71.828V76H238.468V71.744C238.468 70.386 237.754 69.588 236.606 69.588C235.458 69.588 234.59 70.54 234.59 71.87V76H233.512ZM246.129 76V68.762H247.207V69.98C247.683 69.266 248.327 68.608 249.545 68.608C250.721 68.608 251.477 69.238 251.869 70.05C252.387 69.252 253.157 68.608 254.417 68.608C256.083 68.608 257.105 69.728 257.105 71.52V76H256.027V71.772C256.027 70.372 255.327 69.588 254.151 69.588C253.059 69.588 252.163 70.4 252.163 71.828V76H251.085V71.744C251.085 70.386 250.371 69.588 249.223 69.588C248.075 69.588 247.207 70.54 247.207 71.87V76H246.129ZM261.405 76.154C259.655 76.154 258.633 74.978 258.633 73.256V68.762H259.711V72.99C259.711 74.334 260.439 75.174 261.713 75.174C262.945 75.174 263.883 74.264 263.883 72.906V68.762H264.947V76H263.883V74.74C263.393 75.524 262.651 76.154 261.405 76.154ZM266.672 76V68.762H267.75V70.022C268.226 69.238 268.982 68.608 270.228 68.608C271.978 68.608 273 69.784 273 71.506V76H271.922V71.772C271.922 70.428 271.194 69.588 269.92 69.588C268.674 69.588 267.75 70.498 267.75 71.856V76H266.672ZM274.627 67.18V65.99H275.859V67.18H274.627ZM274.697 76V68.762H275.775V76H274.697ZM280.839 76.168C278.725 76.168 277.129 74.446 277.129 72.416V72.388C277.129 70.344 278.725 68.608 280.839 68.608C282.211 68.608 283.065 69.182 283.737 69.896L283.023 70.652C282.449 70.05 281.805 69.56 280.825 69.56C279.355 69.56 278.235 70.806 278.235 72.36V72.388C278.235 73.956 279.383 75.202 280.895 75.202C281.819 75.202 282.533 74.74 283.107 74.124L283.793 74.768C283.065 75.58 282.197 76.168 280.839 76.168ZM287.031 76.154C285.687 76.154 284.329 75.384 284.329 73.9V73.872C284.329 72.346 285.589 71.534 287.423 71.534C288.347 71.534 289.005 71.66 289.649 71.842V71.59C289.649 70.288 288.851 69.616 287.493 69.616C286.639 69.616 285.967 69.84 285.295 70.148L284.973 69.266C285.771 68.902 286.555 68.664 287.605 68.664C288.627 68.664 289.411 68.93 289.943 69.462C290.433 69.952 290.685 70.652 290.685 71.576V76H289.649V74.908C289.145 75.566 288.305 76.154 287.031 76.154ZM287.241 75.3C288.571 75.3 289.663 74.488 289.663 73.34V72.64C289.131 72.486 288.417 72.332 287.535 72.332C286.177 72.332 285.421 72.92 285.421 73.83V73.858C285.421 74.768 286.261 75.3 287.241 75.3ZM294.636 76.126C293.474 76.126 292.592 75.552 292.592 74.082V69.714H291.584V68.762H292.592V66.578H293.67V68.762H295.966V69.714H293.67V73.942C293.67 74.824 294.16 75.146 294.888 75.146C295.252 75.146 295.56 75.076 295.938 74.894V75.818C295.56 76.014 295.154 76.126 294.636 76.126ZM297.202 67.18V65.99H298.434V67.18H297.202ZM297.272 76V68.762H298.35V76H297.272ZM303.456 76.168C301.286 76.168 299.704 74.46 299.704 72.416V72.388C299.704 70.344 301.3 68.608 303.484 68.608C305.654 68.608 307.25 70.316 307.25 72.36V72.388C307.25 74.432 305.64 76.168 303.456 76.168ZM303.484 75.202C305.052 75.202 306.144 73.942 306.144 72.416V72.388C306.144 70.834 304.982 69.56 303.456 69.56C301.888 69.56 300.81 70.834 300.81 72.36V72.388C300.81 73.942 301.958 75.202 303.484 75.202ZM308.502 76V68.762H309.58V70.022C310.056 69.238 310.812 68.608 312.058 68.608C313.808 68.608 314.83 69.784 314.83 71.506V76H313.752V71.772C313.752 70.428 313.024 69.588 311.75 69.588C310.504 69.588 309.58 70.498 309.58 71.856V76H308.502ZM320.109 76V66.2H321.229L324.799 71.548L328.369 66.2H329.489V76H328.383V68.062L324.813 73.312H324.757L321.187 68.076V76H320.109ZM333.537 76.154C332.193 76.154 330.835 75.384 330.835 73.9V73.872C330.835 72.346 332.095 71.534 333.929 71.534C334.853 71.534 335.511 71.66 336.155 71.842V71.59C336.155 70.288 335.357 69.616 333.999 69.616C333.145 69.616 332.473 69.84 331.801 70.148L331.479 69.266C332.277 68.902 333.061 68.664 334.111 68.664C335.133 68.664 335.917 68.93 336.449 69.462C336.939 69.952 337.191 70.652 337.191 71.576V76H336.155V74.908C335.651 75.566 334.811 76.154 333.537 76.154ZM333.747 75.3C335.077 75.3 336.169 74.488 336.169 73.34V72.64C335.637 72.486 334.923 72.332 334.041 72.332C332.683 72.332 331.927 72.92 331.927 73.83V73.858C331.927 74.768 332.767 75.3 333.747 75.3ZM341.182 76.14C340.146 76.14 338.998 75.734 338.186 75.076L338.732 74.306C339.516 74.894 340.384 75.23 341.238 75.23C342.106 75.23 342.736 74.782 342.736 74.082V74.054C342.736 73.326 341.882 73.046 340.93 72.78C339.796 72.458 338.536 72.066 338.536 70.736V70.708C338.536 69.462 339.572 68.636 341 68.636C341.882 68.636 342.862 68.944 343.604 69.434L343.114 70.246C342.442 69.812 341.672 69.546 340.972 69.546C340.118 69.546 339.572 69.994 339.572 70.596V70.624C339.572 71.31 340.468 71.576 341.434 71.87C342.554 72.206 343.758 72.64 343.758 73.942V73.97C343.758 75.342 342.624 76.14 341.182 76.14ZM347.346 76.126C346.184 76.126 345.302 75.552 345.302 74.082V69.714H344.294V68.762H345.302V66.578H346.38V68.762H348.676V69.714H346.38V73.942C346.38 74.824 346.87 75.146 347.598 75.146C347.962 75.146 348.27 75.076 348.648 74.894V75.818C348.27 76.014 347.864 76.126 347.346 76.126ZM352.843 76.168C350.855 76.168 349.231 74.642 349.231 72.402V72.374C349.231 70.288 350.701 68.608 352.703 68.608C354.845 68.608 356.077 70.316 356.077 72.43C356.077 72.57 356.077 72.654 356.063 72.78H350.323C350.477 74.348 351.583 75.23 352.871 75.23C353.865 75.23 354.565 74.824 355.153 74.208L355.825 74.81C355.097 75.622 354.215 76.168 352.843 76.168ZM350.323 71.982H354.985C354.873 70.666 354.117 69.518 352.675 69.518C351.415 69.518 350.463 70.568 350.323 71.982ZM357.265 76V68.762H358.343V70.652C358.875 69.448 359.925 68.58 361.297 68.636V69.798H361.213C359.631 69.798 358.343 70.932 358.343 73.116V76H357.265ZM365.332 74.796L367.656 68.762H368.804L365.766 76.238C365.15 77.736 364.45 78.282 363.358 78.282C362.756 78.282 362.308 78.156 361.818 77.918L362.182 77.064C362.532 77.246 362.854 77.33 363.316 77.33C363.96 77.33 364.366 76.994 364.8 75.972L361.51 68.762H362.7L365.332 74.796Z" fill="black"/>
<path d="M136.484 117V107.2H137.59V117H136.484ZM139.578 117V109.762H140.656V111.022C141.132 110.238 141.888 109.608 143.134 109.608C144.884 109.608 145.906 110.784 145.906 112.506V117H144.828V112.772C144.828 111.428 144.1 110.588 142.826 110.588C141.58 110.588 140.656 111.498 140.656 112.856V117H139.578ZM150.767 117.168C148.653 117.168 147.057 115.446 147.057 113.416V113.388C147.057 111.344 148.653 109.608 150.767 109.608C152.139 109.608 152.993 110.182 153.665 110.896L152.951 111.652C152.377 111.05 151.733 110.56 150.753 110.56C149.283 110.56 148.163 111.806 148.163 113.36V113.388C148.163 114.956 149.311 116.202 150.823 116.202C151.747 116.202 152.461 115.74 153.035 115.124L153.721 115.768C152.993 116.58 152.125 117.168 150.767 117.168ZM154.901 117V106.78H155.979V117H154.901ZM160.441 117.154C158.691 117.154 157.669 115.978 157.669 114.256V109.762H158.747V113.99C158.747 115.334 159.475 116.174 160.749 116.174C161.981 116.174 162.919 115.264 162.919 113.906V109.762H163.983V117H162.919V115.74C162.429 116.524 161.687 117.154 160.441 117.154ZM168.102 117.14C167.066 117.14 165.918 116.734 165.106 116.076L165.652 115.306C166.436 115.894 167.304 116.23 168.158 116.23C169.026 116.23 169.656 115.782 169.656 115.082V115.054C169.656 114.326 168.802 114.046 167.85 113.78C166.716 113.458 165.456 113.066 165.456 111.736V111.708C165.456 110.462 166.492 109.636 167.92 109.636C168.802 109.636 169.782 109.944 170.524 110.434L170.034 111.246C169.362 110.812 168.592 110.546 167.892 110.546C167.038 110.546 166.492 110.994 166.492 111.596V111.624C166.492 112.31 167.388 112.576 168.354 112.87C169.474 113.206 170.678 113.64 170.678 114.942V114.97C170.678 116.342 169.544 117.14 168.102 117.14ZM172.009 108.18V106.99H173.241V108.18H172.009ZM172.079 117V109.762H173.157V117H172.079ZM177.38 117.056L174.244 109.762H175.434L177.87 115.768L180.32 109.762H181.482L178.332 117.056H177.38ZM185.215 117.168C183.227 117.168 181.603 115.642 181.603 113.402V113.374C181.603 111.288 183.073 109.608 185.075 109.608C187.217 109.608 188.449 111.316 188.449 113.43C188.449 113.57 188.449 113.654 188.435 113.78H182.695C182.849 115.348 183.955 116.23 185.243 116.23C186.237 116.23 186.937 115.824 187.525 115.208L188.197 115.81C187.469 116.622 186.587 117.168 185.215 117.168ZM182.695 112.982H187.357C187.245 111.666 186.489 110.518 185.047 110.518C183.787 110.518 182.835 111.568 182.695 112.982ZM193.316 117V107.2H194.422V115.978H199.938V117H193.316ZM204.129 117.168C202.141 117.168 200.517 115.642 200.517 113.402V113.374C200.517 111.288 201.987 109.608 203.989 109.608C206.131 109.608 207.363 111.316 207.363 113.43C207.363 113.57 207.363 113.654 207.349 113.78H201.609C201.763 115.348 202.869 116.23 204.157 116.23C205.151 116.23 205.851 115.824 206.439 115.208L207.111 115.81C206.383 116.622 205.501 117.168 204.129 117.168ZM201.609 112.982H206.271C206.159 111.666 205.403 110.518 203.961 110.518C202.701 110.518 201.749 111.568 201.609 112.982ZM210.706 117.154C209.362 117.154 208.004 116.384 208.004 114.9V114.872C208.004 113.346 209.264 112.534 211.098 112.534C212.022 112.534 212.68 112.66 213.324 112.842V112.59C213.324 111.288 212.526 110.616 211.168 110.616C210.314 110.616 209.642 110.84 208.97 111.148L208.648 110.266C209.446 109.902 210.23 109.664 211.28 109.664C212.302 109.664 213.086 109.93 213.618 110.462C214.108 110.952 214.36 111.652 214.36 112.576V117H213.324V115.908C212.82 116.566 211.98 117.154 210.706 117.154ZM210.916 116.3C212.246 116.3 213.338 115.488 213.338 114.34V113.64C212.806 113.486 212.092 113.332 211.21 113.332C209.852 113.332 209.096 113.92 209.096 114.83V114.858C209.096 115.768 209.936 116.3 210.916 116.3ZM215.958 117V109.762H217.036V111.652C217.568 110.448 218.618 109.58 219.99 109.636V110.798H219.906C218.324 110.798 217.036 111.932 217.036 114.116V117H215.958ZM220.931 117V109.762H222.009V111.022C222.485 110.238 223.241 109.608 224.487 109.608C226.237 109.608 227.259 110.784 227.259 112.506V117H226.181V112.772C226.181 111.428 225.453 110.588 224.179 110.588C222.933 110.588 222.009 111.498 222.009 112.856V117H220.931ZM228.886 108.18V106.99H230.118V108.18H228.886ZM228.956 117V109.762H230.034V117H228.956ZM231.836 117V109.762H232.914V111.022C233.39 110.238 234.146 109.608 235.392 109.608C237.142 109.608 238.164 110.784 238.164 112.506V117H237.086V112.772C237.086 111.428 236.358 110.588 235.084 110.588C233.838 110.588 232.914 111.498 232.914 112.856V117H231.836ZM242.969 119.268C241.765 119.268 240.645 118.932 239.679 118.26L240.169 117.42C240.995 118.022 241.919 118.344 242.955 118.344C244.551 118.344 245.587 117.462 245.587 115.768V114.914C244.957 115.754 244.075 116.44 242.745 116.44C241.009 116.44 239.343 115.138 239.343 113.052V113.024C239.343 110.91 241.023 109.608 242.745 109.608C244.103 109.608 244.985 110.28 245.573 111.064V109.762H246.651V115.74C246.651 116.86 246.315 117.714 245.727 118.302C245.083 118.946 244.117 119.268 242.969 119.268ZM242.955 115.488C244.327 115.488 245.615 114.494 245.615 113.038V113.01C245.615 111.526 244.327 110.56 242.955 110.56C241.583 110.56 240.449 111.512 240.449 112.996V113.024C240.449 114.48 241.611 115.488 242.955 115.488ZM259.109 117.196L257.569 115.614C256.673 116.58 255.637 117.14 254.363 117.14C252.599 117.14 251.283 116.034 251.283 114.396V114.368C251.283 113.066 252.151 112.128 253.649 111.54C252.977 110.756 252.669 110.154 252.669 109.384V109.356C252.669 108.068 253.705 107.032 255.259 107.032C256.631 107.032 257.639 108.026 257.639 109.244V109.272C257.639 110.518 256.757 111.316 255.329 111.82L257.569 114.102C258.003 113.472 258.395 112.73 258.745 111.918L259.655 112.338C259.221 113.262 258.773 114.102 258.241 114.802L259.949 116.552L259.109 117.196ZM254.713 111.19C255.959 110.77 256.603 110.168 256.603 109.328V109.3C256.603 108.516 256.015 107.942 255.217 107.942C254.335 107.942 253.733 108.558 253.733 109.356V109.384C253.733 109.958 253.971 110.392 254.713 111.19ZM254.447 116.202C255.371 116.202 256.183 115.712 256.897 114.928L254.279 112.226C252.977 112.702 252.403 113.5 252.403 114.326V114.354C252.403 115.404 253.243 116.202 254.447 116.202ZM263.744 117L268.21 107.13H269.246L273.712 117H272.522L271.374 114.41H266.04L264.878 117H263.744ZM266.474 113.402H270.94L268.714 108.418L266.474 113.402ZM277.67 117.168C275.556 117.168 273.96 115.446 273.96 113.416V113.388C273.96 111.344 275.556 109.608 277.67 109.608C279.042 109.608 279.896 110.182 280.568 110.896L279.854 111.652C279.28 111.05 278.636 110.56 277.656 110.56C276.186 110.56 275.066 111.806 275.066 113.36V113.388C275.066 114.956 276.214 116.202 277.726 116.202C278.65 116.202 279.364 115.74 279.938 115.124L280.624 115.768C279.896 116.58 279.028 117.168 277.67 117.168ZM284.762 117.168C282.648 117.168 281.052 115.446 281.052 113.416V113.388C281.052 111.344 282.648 109.608 284.762 109.608C286.134 109.608 286.988 110.182 287.66 110.896L286.946 111.652C286.372 111.05 285.728 110.56 284.748 110.56C283.278 110.56 282.158 111.806 282.158 113.36V113.388C282.158 114.956 283.306 116.202 284.818 116.202C285.742 116.202 286.456 115.74 287.03 115.124L287.716 115.768C286.988 116.58 286.12 117.168 284.762 117.168ZM291.757 117.168C289.769 117.168 288.145 115.642 288.145 113.402V113.374C288.145 111.288 289.615 109.608 291.617 109.608C293.759 109.608 294.991 111.316 294.991 113.43C294.991 113.57 294.991 113.654 294.977 113.78H289.237C289.391 115.348 290.497 116.23 291.785 116.23C292.779 116.23 293.479 115.824 294.067 115.208L294.739 115.81C294.011 116.622 293.129 117.168 291.757 117.168ZM289.237 112.982H293.899C293.787 111.666 293.031 110.518 291.589 110.518C290.329 110.518 289.377 111.568 289.237 112.982ZM298.573 117.14C297.537 117.14 296.389 116.734 295.577 116.076L296.123 115.306C296.907 115.894 297.775 116.23 298.629 116.23C299.497 116.23 300.127 115.782 300.127 115.082V115.054C300.127 114.326 299.273 114.046 298.321 113.78C297.187 113.458 295.927 113.066 295.927 111.736V111.708C295.927 110.462 296.963 109.636 298.391 109.636C299.273 109.636 300.253 109.944 300.995 110.434L300.505 111.246C299.833 110.812 299.063 110.546 298.363 110.546C297.509 110.546 296.963 110.994 296.963 111.596V111.624C296.963 112.31 297.859 112.576 298.825 112.87C299.945 113.206 301.149 113.64 301.149 114.942V114.97C301.149 116.342 300.015 117.14 298.573 117.14ZM304.709 117.14C303.673 117.14 302.525 116.734 301.713 116.076L302.259 115.306C303.043 115.894 303.911 116.23 304.765 116.23C305.633 116.23 306.263 115.782 306.263 115.082V115.054C306.263 114.326 305.409 114.046 304.457 113.78C303.323 113.458 302.063 113.066 302.063 111.736V111.708C302.063 110.462 303.099 109.636 304.527 109.636C305.409 109.636 306.389 109.944 307.131 110.434L306.641 111.246C305.969 110.812 305.199 110.546 304.499 110.546C303.645 110.546 303.099 110.994 303.099 111.596V111.624C303.099 112.31 303.995 112.576 304.961 112.87C306.081 113.206 307.285 113.64 307.285 114.942V114.97C307.285 116.342 306.151 117.14 304.709 117.14ZM308.615 108.18V106.99H309.847V108.18H308.615ZM308.685 117V109.762H309.763V117H308.685ZM315.415 117.154C314.071 117.154 313.203 116.426 312.643 115.614V117H311.565V106.78H312.643V111.218C313.231 110.35 314.085 109.608 315.415 109.608C317.151 109.608 318.873 110.98 318.873 113.36V113.388C318.873 115.754 317.165 117.154 315.415 117.154ZM315.219 116.188C316.619 116.188 317.767 115.152 317.767 113.402V113.374C317.767 111.666 316.591 110.574 315.219 110.574C313.875 110.574 312.601 111.708 312.601 113.36V113.388C312.601 115.068 313.875 116.188 315.219 116.188ZM320.19 108.18V106.99H321.422V108.18H320.19ZM320.26 117V109.762H321.338V117H320.26ZM323.238 117V106.78H324.316V117H323.238ZM326.145 108.18V106.99H327.377V108.18H326.145ZM326.215 117V109.762H327.293V117H326.215ZM331.517 117.126C330.355 117.126 329.473 116.552 329.473 115.082V110.714H328.465V109.762H329.473V107.578H330.551V109.762H332.847V110.714H330.551V114.942C330.551 115.824 331.041 116.146 331.769 116.146C332.133 116.146 332.441 116.076 332.819 115.894V116.818C332.441 117.014 332.035 117.126 331.517 117.126ZM337.149 115.796L339.473 109.762H340.621L337.583 117.238C336.967 118.736 336.267 119.282 335.175 119.282C334.573 119.282 334.125 119.156 333.635 118.918L333.999 118.064C334.349 118.246 334.671 118.33 335.133 118.33C335.777 118.33 336.183 117.994 336.617 116.972L333.327 109.762H334.517L337.149 115.796Z" fill="black"/>
<path d="M111.386 158V148.2H112.492V152.554H118.148V148.2H119.254V158H118.148V153.59H112.492V158H111.386ZM124.445 158.168C122.275 158.168 120.693 156.46 120.693 154.416V154.388C120.693 152.344 122.289 150.608 124.473 150.608C126.643 150.608 128.239 152.316 128.239 154.36V154.388C128.239 156.432 126.629 158.168 124.445 158.168ZM124.473 157.202C126.041 157.202 127.133 155.942 127.133 154.416V154.388C127.133 152.834 125.971 151.56 124.445 151.56C122.877 151.56 121.799 152.834 121.799 154.36V154.388C121.799 155.942 122.947 157.202 124.473 157.202ZM129.59 158V147.78H130.668V158H129.59ZM132.497 149.18V147.99H133.729V149.18H132.497ZM132.567 158V150.762H133.645V158H132.567ZM137.841 158.14C136.805 158.14 135.657 157.734 134.845 157.076L135.391 156.306C136.175 156.894 137.043 157.23 137.897 157.23C138.765 157.23 139.395 156.782 139.395 156.082V156.054C139.395 155.326 138.541 155.046 137.589 154.78C136.455 154.458 135.195 154.066 135.195 152.736V152.708C135.195 151.462 136.231 150.636 137.659 150.636C138.541 150.636 139.521 150.944 140.263 151.434L139.773 152.246C139.101 151.812 138.331 151.546 137.631 151.546C136.777 151.546 136.231 151.994 136.231 152.596V152.624C136.231 153.31 137.127 153.576 138.093 153.87C139.213 154.206 140.417 154.64 140.417 155.942V155.97C140.417 157.342 139.283 158.14 137.841 158.14ZM144.005 158.126C142.843 158.126 141.961 157.552 141.961 156.082V151.714H140.953V150.762H141.961V148.578H143.039V150.762H145.335V151.714H143.039V155.942C143.039 156.824 143.529 157.146 144.257 157.146C144.621 157.146 144.929 157.076 145.307 156.894V157.818C144.929 158.014 144.523 158.126 144.005 158.126ZM146.571 149.18V147.99H147.803V149.18H146.571ZM146.641 158V150.762H147.719V158H146.641ZM152.783 158.168C150.669 158.168 149.073 156.446 149.073 154.416V154.388C149.073 152.344 150.669 150.608 152.783 150.608C154.155 150.608 155.009 151.182 155.681 151.896L154.967 152.652C154.393 152.05 153.749 151.56 152.769 151.56C151.299 151.56 150.179 152.806 150.179 154.36V154.388C150.179 155.956 151.327 157.202 152.839 157.202C153.763 157.202 154.477 156.74 155.051 156.124L155.737 156.768C155.009 157.58 154.141 158.168 152.783 158.168ZM163.242 158.07L159.742 148.2H160.946L163.746 156.362L166.434 148.172H167.344L170.032 156.362L172.832 148.2H173.994L170.494 158.07H169.556L166.868 150.118L164.166 158.07H163.242ZM177.368 158.168C175.38 158.168 173.756 156.642 173.756 154.402V154.374C173.756 152.288 175.226 150.608 177.228 150.608C179.37 150.608 180.602 152.316 180.602 154.43C180.602 154.57 180.602 154.654 180.588 154.78H174.848C175.002 156.348 176.108 157.23 177.396 157.23C178.39 157.23 179.09 156.824 179.678 156.208L180.35 156.81C179.622 157.622 178.74 158.168 177.368 158.168ZM174.848 153.982H179.51C179.398 152.666 178.642 151.518 177.2 151.518C175.94 151.518 174.988 152.568 174.848 153.982ZM181.887 158V147.78H182.965V158H181.887ZM184.865 158V147.78H185.943V158H184.865ZM187.451 154.36V153.226H191.343V154.36H187.451ZM192.941 158V148.2H197.113C198.233 148.2 199.115 148.522 199.675 149.068C200.081 149.488 200.305 150.006 200.305 150.636V150.664C200.305 151.938 199.521 152.596 198.751 152.932C199.913 153.282 200.851 153.954 200.851 155.298V155.326C200.851 157.006 199.437 158 197.295 158H192.941ZM199.185 150.818V150.79C199.185 149.824 198.415 149.194 197.015 149.194H194.033V152.568H196.931C198.261 152.568 199.185 151.966 199.185 150.818ZM199.731 155.228C199.731 154.164 198.835 153.548 197.127 153.548H194.033V157.006H197.323C198.807 157.006 199.731 156.348 199.731 155.256V155.228ZM205.327 158.168C203.339 158.168 201.715 156.642 201.715 154.402V154.374C201.715 152.288 203.185 150.608 205.187 150.608C207.329 150.608 208.561 152.316 208.561 154.43C208.561 154.57 208.561 154.654 208.547 154.78H202.807C202.961 156.348 204.067 157.23 205.355 157.23C206.349 157.23 207.049 156.824 207.637 156.208L208.309 156.81C207.581 157.622 206.699 158.168 205.327 158.168ZM202.807 153.982H207.469C207.357 152.666 206.601 151.518 205.159 151.518C203.899 151.518 202.947 152.568 202.807 153.982ZM209.776 149.18V147.99H211.008V149.18H209.776ZM209.846 158V150.762H210.924V158H209.846ZM212.726 158V150.762H213.804V152.022C214.28 151.238 215.036 150.608 216.282 150.608C218.032 150.608 219.054 151.784 219.054 153.506V158H217.976V153.772C217.976 152.428 217.248 151.588 215.974 151.588C214.728 151.588 213.804 152.498 213.804 153.856V158H212.726ZM223.859 160.268C222.655 160.268 221.535 159.932 220.569 159.26L221.059 158.42C221.885 159.022 222.809 159.344 223.845 159.344C225.441 159.344 226.477 158.462 226.477 156.768V155.914C225.847 156.754 224.965 157.44 223.635 157.44C221.899 157.44 220.233 156.138 220.233 154.052V154.024C220.233 151.91 221.913 150.608 223.635 150.608C224.993 150.608 225.875 151.28 226.463 152.064V150.762H227.541V156.74C227.541 157.86 227.205 158.714 226.617 159.302C225.973 159.946 225.007 160.268 223.859 160.268ZM223.845 156.488C225.217 156.488 226.505 155.494 226.505 154.038V154.01C226.505 152.526 225.217 151.56 223.845 151.56C222.473 151.56 221.339 152.512 221.339 153.996V154.024C221.339 155.48 222.501 156.488 223.845 156.488Z" fill="black"/>
<path d="M40.0169 55.0267C38.5243 53.4132 37.8675 51.7291 38.0464 49.9744C38.2399 48.2202 39.2581 46.4907 41.101 44.7859L50.6898 35.9156C52.4179 34.3169 54.1184 33.5244 55.7911 33.5379C57.471 33.559 59.0642 34.384 60.5709 36.0127C62.0776 37.6414 62.7727 39.2902 62.6561 40.9589C62.5466 42.6353 61.6278 44.2728 59.8997 45.8715L50.3109 54.7418C48.468 56.4466 46.6611 57.3234 44.8901 57.3725C43.1338 57.422 41.5094 56.6401 40.0169 55.0267ZM43.7649 51.6233C44.3308 52.235 45.2064 51.9927 46.3916 50.8963L56.2442 41.7819C57.2383 40.8623 57.4595 40.1043 56.9077 39.5078C56.2852 38.8349 55.4655 38.9689 54.4485 39.9097L44.6073 49.0135C43.9803 49.5935 43.5999 50.0873 43.4661 50.4949C43.3399 50.8954 43.4395 51.2715 43.7649 51.6233ZM46.5747 64.234C45.9896 63.1294 45.7712 62.1606 45.9194 61.3277C46.0725 60.504 46.5026 59.7694 47.2098 59.1237C47.9261 58.4732 48.8366 57.8554 49.9412 57.2703L65.3646 49.1014L67.9974 54.0722L53.1539 61.934C52.3255 62.3728 51.7797 62.7444 51.5165 63.0488C51.2626 63.3483 51.2624 63.7374 51.5159 64.2161C51.789 64.7316 52.1897 64.9319 52.7182 64.817C53.2516 64.7113 53.8819 64.4658 54.6092 64.0807L69.2041 56.3505L71.8149 61.2799L51.1031 72.2499L48.485 67.3066L50.6942 66.1365C49.7368 66.2428 48.934 66.1848 48.2857 65.9623C47.6423 65.7491 47.072 65.173 46.5747 64.234ZM51.0087 72.5937L73.6088 66.3846L75.1156 71.8689L72.5994 72.5601C73.545 72.5812 74.355 72.8556 75.0293 73.3833C75.7036 73.911 76.1788 74.6771 76.4547 75.6816L71.9498 76.9193C71.8284 76.4773 71.6333 75.9638 71.3645 75.3786C71.1057 74.7908 70.8275 74.2893 70.5298 73.8741C70.2422 73.4562 69.9979 73.2749 69.797 73.3301L52.5155 78.078L51.0087 72.5937ZM53.2477 92.743C53.4458 88.8209 56.3538 87.0017 61.9716 87.2855L73.8159 87.8839C78.9448 88.143 81.3957 90.5196 81.1687 95.0139C81.0751 96.8657 80.6289 98.2669 79.8299 99.2173C79.0413 100.168 77.9249 100.795 76.4808 101.098C75.0366 101.4 73.2897 101.5 71.2403 101.396L71.5115 96.028L73.9458 96.1509C74.5388 96.1809 75.0372 96.1226 75.4409 95.9762C75.8546 95.8406 76.0742 95.5179 76.1 95.0082C76.1321 94.3736 75.9401 93.9415 75.524 93.7118C75.1075 93.4926 74.6443 93.3701 74.1346 93.3444L60.8234 92.672C60.0848 92.6347 59.4766 92.6978 58.999 92.8614C58.5313 93.036 58.2832 93.4041 58.2549 93.9659C58.2254 94.5485 58.4349 94.945 58.8831 95.1554C59.3413 95.3767 59.9501 95.5065 60.7096 95.5449L64.6264 95.7428L64.7005 94.2759L69.4445 94.5155L69.1055 101.226L53.1103 100.418L53.2215 98.2174L55.5783 97.3977C53.9205 96.3544 53.1436 94.8029 53.2477 92.743ZM50.502 106.911C51.9249 102.467 54.9429 100.983 59.556 102.46L68.5143 105.328C70.6175 106.001 72.1051 107.129 72.9772 108.709C73.8591 110.293 73.9666 112.127 73.2997 114.21C72.6295 116.303 71.4755 117.739 69.8376 118.516C68.2096 119.296 66.3441 119.35 64.2409 118.676L55.2825 115.808C50.6694 114.331 49.0759 111.366 50.502 106.911ZM54.6091 108.226C54.4662 108.673 54.5233 109.041 54.7804 109.331C55.0443 109.634 55.4242 109.865 55.9203 110.024L66.828 113.516C68.1276 113.932 68.9108 113.724 69.1776 112.89C69.4444 112.057 68.928 111.432 67.6284 111.016L56.7206 107.524C56.2246 107.365 55.7827 107.328 55.395 107.412C55.014 107.508 54.7521 107.78 54.6091 108.226ZM45.786 117.109C46.4895 116.013 47.2811 115.34 48.161 115.087C49.0352 114.844 49.9825 114.901 51.0029 115.259C52.0232 115.617 53.0944 116.157 54.2164 116.877C55.4173 117.648 56.3231 118.397 56.9337 119.123C57.5532 119.855 57.9254 120.663 58.0505 121.548C58.1699 122.442 58.077 123.502 57.7717 124.73L56.8969 128.29L58.9217 129.59C59.9824 130.271 60.735 130.266 61.1796 129.573C61.5848 128.942 61.3579 128.351 60.4988 127.799L59.3155 127.039L62.2532 122.464C62.3289 122.5 62.4194 122.552 62.5246 122.62C62.6385 122.693 62.7656 122.774 62.9059 122.864C64.8694 124.125 65.9633 125.477 66.1875 126.921C66.415 128.379 65.8843 130.112 64.5956 132.119C63.9202 133.171 63.1268 133.992 62.2152 134.583C61.3124 135.179 60.3425 135.485 59.3054 135.5C58.2627 135.524 57.2067 135.192 56.1373 134.506L41.1087 124.857L44.1139 120.176L46.4543 121.679C45.7767 120.922 45.3875 120.14 45.2869 119.333C45.1863 118.525 45.3527 117.784 45.786 117.109ZM48.251 121.31C48.0034 121.695 47.9967 122.063 48.231 122.411C48.4653 122.76 48.7709 123.055 49.1478 123.297L54.6438 126.825C54.7973 126.008 54.7878 125.29 54.6153 124.672C54.4516 124.059 53.9841 123.505 53.2127 123.01L50.6751 121.381C49.5092 120.632 48.7012 120.609 48.251 121.31ZM40.8379 124.897L60.8612 143.747L56.9628 147.888L36.9394 129.038L40.8379 124.897ZM31.1915 132.626C34.9609 129.946 38.2037 130.516 40.92 134.336L41.9974 135.851L37.4131 139.111L35.8196 136.87C35.5117 136.437 35.1854 136.158 34.8405 136.032C34.4957 135.907 34.1365 135.977 33.763 136.242C33.1008 136.713 33.1228 137.445 33.8291 138.439C34.4206 139.27 35.0353 139.766 35.6731 139.926C36.3169 140.095 37.0251 140.192 37.7976 140.218L41.5608 140.361C42.7474 140.412 43.7756 140.626 44.6455 141.005C45.5153 141.383 46.3697 142.163 47.2088 143.343C47.9874 144.438 48.3714 145.526 48.3605 146.607C48.3412 147.695 48.0266 148.717 47.4167 149.675C46.7982 150.639 45.9881 151.477 44.9864 152.189C41.2849 154.821 38.1214 154.29 35.4956 150.597L35.2421 150.241L39.9538 146.891L40.4698 147.616C40.7415 147.998 41.072 148.32 41.4613 148.579C41.8422 148.845 42.2236 148.843 42.6057 148.571C43.2509 148.112 43.332 147.543 42.8491 146.864C42.3602 146.177 41.7052 145.831 40.8842 145.826L36.5904 145.774C35.2548 145.765 33.979 145.534 32.763 145.082C31.5385 144.636 30.4102 143.688 29.378 142.236C28.0983 140.436 27.6371 138.7 27.9943 137.027C28.343 135.361 29.4088 133.893 31.1915 132.626Z" fill="#D91E1E"/>
<defs>
<filter id="filter0_n_223_4226" x="-75" y="0" width="179" height="180" filterUnits="userSpaceOnUse" color-interpolation-filters="sRGB">
<feFlood flood-opacity="0" result="BackgroundImageFix"/>
<feBlend mode="normal" in="SourceGraphic" in2="BackgroundImageFix" result="shape"/>
<feTurbulence type="fractalNoise" baseFrequency="10.137523651123047 10.137523651123047" stitchTiles="stitch" numOctaves="3" result="noise" seed="7655" />
<feColorMatrix in="noise" type="luminanceToAlpha" result="alphaNoise" />
<feComponentTransfer in="alphaNoise" result="coloredNoise1">
<feFuncA type="discrete" tableValues="0 0 0 0 0 0 0 0 0 1 1 1 1 1 1 1 1 1 1 1 1 1 1 1 1 1 1 1 1 1 1 1 1 1 1 1 1 1 1 1 1 1 0 0 0 0 0 0 0 0 0 0 0 0 0 0 0 0 0 0 0 0 0 0 0 0 0 0 0 0 0 0 0 0 0 0 0 0 0 0 0 0 0 0 0 0 0 0 0 0 0 0 0 0 0 0 0 0 0 0 "/>
</feComponentTransfer>
<feComposite operator="in" in2="shape" in="coloredNoise1" result="noise1Clipped" />
<feFlood flood-color="rgba(95, 0, 0, 0.4)" result="color1Flood" />
<feComposite operator="in" in2="noise1Clipped" in="color1Flood" result="color1" />
<feMerge result="effect1_noise_223_4226">
<feMergeNode in="shape" />
<feMergeNode in="color1" />
</feMerge>
</filter>
<filter id="filter1_n_223_4226" x="-45.2305" y="43.7402" width="91.7383" height="91.7383" filterUnits="userSpaceOnUse" color-interpolation-filters="sRGB">
<feFlood flood-opacity="0" result="BackgroundImageFix"/>
<feBlend mode="normal" in="SourceGraphic" in2="BackgroundImageFix" result="shape"/>
<feTurbulence type="fractalNoise" baseFrequency="4.0550093650817871 4.0550093650817871" stitchTiles="stitch" numOctaves="3" result="noise" seed="9226" />
<feColorMatrix in="noise" type="luminanceToAlpha" result="alphaNoise" />
<feComponentTransfer in="alphaNoise" result="coloredNoise1">
<feFuncA type="discrete" tableValues="1 1 1 1 1 1 1 1 1 1 1 1 1 1 1 1 1 1 1 1 1 1 1 1 1 1 1 1 1 1 1 1 1 1 1 1 1 1 1 1 1 1 1 1 1 1 1 1 1 1 1 0 0 0 0 0 0 0 0 0 0 0 0 0 0 0 0 0 0 0 0 0 0 0 0 0 0 0 0 0 0 0 0 0 0 0 0 0 0 0 0 0 0 0 0 0 0 0 0 0 "/>
</feComponentTransfer>
<feComposite operator="in" in2="shape" in="coloredNoise1" result="noise1Clipped" />
<feFlood flood-color="rgba(95, 0, 0, 0.4)" result="color1Flood" />
<feComposite operator="in" in2="noise1Clipped" in="color1Flood" result="color1" />
<feMerge result="effect1_noise_223_4226">
<feMergeNode in="shape" />
<feMergeNode in="color1" />
</feMerge>
</filter>
<linearGradient id="paint0_linear_223_4226" x1="99.577" y1="85.9448" x2="-95.0334" y2="85.9448" gradientUnits="userSpaceOnUse">
<stop stop-color="#D91E1E"/>
<stop offset="0.585962" stop-color="#D91E1E" stop-opacity="0"/>
</linearGradient>
<linearGradient id="paint1_linear_223_4226" x1="46.5079" y1="89.6094" x2="-78.0294" y2="89.6094" gradientUnits="userSpaceOnUse">
<stop offset="0.00210296" stop-color="#D91E1E"/>
<stop offset="1" stop-color="#D91E1E" stop-opacity="0"/>
</linearGradient>
</defs>
</svg>
