<svg width="40" height="40" viewBox="0 0 40 40" fill="none" xmlns="http://www.w3.org/2000/svg">
<path fill-rule="evenodd" clip-rule="evenodd" d="M12.5711 5.5C14.9578 5.23333 17.4489 5 20 5C22.5511 5 25.0422 5.23333 27.4289 5.5C29.2429 5.708 30.9327 6.52527 32.222 7.81819C33.5113 9.11111 34.3238 10.8032 34.5267 12.6178C34.7822 14.9933 35 17.4667 35 20C35 22.5333 34.7822 25.0067 34.5267 27.3822C34.3238 29.1968 33.5113 30.8889 32.222 32.1818C30.9327 33.4747 29.2429 34.292 27.4289 34.5C25.0422 34.7667 22.5511 35 20 35C17.4489 35 14.9578 34.7667 12.5711 34.5C10.7571 34.292 9.06732 33.4747 7.77803 32.1818C6.48874 30.8889 5.67623 29.1968 5.47333 27.3822C5.21778 25.0067 5 22.5333 5 20C5 17.4667 5.21778 14.9933 5.47333 12.6178C5.67623 10.8032 6.48874 9.11111 7.77803 7.81819C9.06732 6.52527 10.7571 5.708 12.5711 5.5ZM22.96 10.8489C22.8833 10.5164 22.6868 10.2238 22.4082 10.0268C22.1295 9.82992 21.788 9.74249 21.449 9.78123C21.11 9.81997 20.7971 9.98216 20.57 10.2369C20.3429 10.4916 20.2175 10.821 20.2178 11.1622V24C20.2178 24.6821 20.0155 25.3489 19.6365 25.9161C19.2576 26.4833 18.7189 26.9253 18.0887 27.1864C17.4585 27.4474 16.7651 27.5157 16.096 27.3826C15.427 27.2495 14.8125 26.9211 14.3302 26.4387C13.8478 25.9564 13.5193 25.3419 13.3863 24.6728C13.2532 24.0038 13.3215 23.3104 13.5825 22.6802C13.8436 22.05 14.2856 21.5113 14.8528 21.1324C15.42 20.7534 16.0868 20.5511 16.7689 20.5511C17.1372 20.5511 17.4905 20.4048 17.751 20.1443C18.0114 19.8838 18.1578 19.5306 18.1578 19.1622C18.1578 18.7939 18.0114 18.4406 17.751 18.1801C17.4905 17.9197 17.1372 17.7733 16.7689 17.7733C15.5374 17.7733 14.3335 18.1385 13.3095 18.8227C12.2856 19.5069 11.4875 20.4794 11.0162 21.6172C10.5449 22.7549 10.4216 24.0069 10.6619 25.2148C10.9021 26.4226 11.4952 27.5321 12.366 28.4029C13.2368 29.2737 14.3463 29.8668 15.5541 30.107C16.762 30.3473 18.014 30.224 19.1517 29.7527C20.2895 29.2814 21.262 28.4833 21.9462 27.4594C22.6304 26.4354 22.9956 25.2315 22.9956 24V16.2444C24.3289 17.3778 26.0489 18 28.0667 18C28.435 18 28.7883 17.8537 29.0488 17.5932C29.3092 17.3327 29.4556 16.9795 29.4556 16.6111C29.4556 16.2428 29.3092 15.8895 29.0488 15.629C28.7883 15.3686 28.435 15.2222 28.0667 15.2222C26.6 15.2222 25.5111 14.7689 24.7089 14.0556C23.8911 13.3267 23.2844 12.2422 22.96 10.8489Z" fill="#FCFCFC"/>
</svg>
