<svg width="64" height="64" viewBox="0 0 64 64" fill="none" xmlns="http://www.w3.org/2000/svg">
<path d="M30.8909 0.0383987C30.8909 0.434746 30.4667 3.08095 30.2729 3.85033C29.3398 7.7322 27.7766 10.2035 25.6438 11.1828C24.3836 11.7656 24.117 11.754 22.3962 11.0895C21.5722 10.7748 20.2635 10.2502 19.5 9.92377C18.7366 9.59737 18.0944 9.32925 18.0822 9.32925C18.058 9.32925 18.1671 9.57405 18.3246 9.87714C19.2698 11.684 20.3362 14.9947 21.8024 20.6368C22.6628 23.9475 23.3778 26.9784 23.3778 27.2815C23.3778 27.468 22.9173 27.4097 22.4083 27.1649C20.93 26.4421 17.0522 22.8051 13.0776 18.4219C12.5201 17.8157 12.0233 17.2912 11.9627 17.2795C11.9142 17.2562 11.8537 17.8624 11.8537 18.6201C11.8294 21.0914 11.7082 22.3271 11.5022 22.3038C11.4053 22.2805 9.28466 21.8725 6.78837 21.3945C4.3042 20.9049 2.24416 20.5319 2.21993 20.5552C2.18357 20.5902 3.03182 24.6819 4.2315 30.1375C4.35267 30.7087 4.42538 31.2216 4.37691 31.2566C4.32844 31.2916 3.37113 31.548 2.23204 31.8278C1.10508 32.1076 0.0992939 32.364 0.0265865 32.399C-0.0703566 32.4456 0.0992939 32.6321 0.511302 32.8886C0.850603 33.1101 3.33477 34.7421 6.01283 36.514C8.67876 38.2976 11.4053 40.1045 12.0718 40.5358C12.7261 40.9671 13.9016 41.7481 14.6771 42.2727C16.6039 43.555 16.7978 43.6016 18.6639 43.2053C23.5959 42.1445 28.5036 39.5333 32.0542 36.071C36.0652 32.1542 39.1916 26.8618 41.1547 20.6368C42.1363 17.5709 42.415 16.4052 42.9361 13.351C43.2511 11.5791 43.5541 9.10776 43.4692 9.03782C43.445 9.0145 39.7733 11.0545 38.3313 11.9055L37.9435 12.127L37.0468 10.5882C36.5378 9.73726 35.4957 7.90706 34.708 6.5315C32.5753 2.78952 30.9999 0.0733719 30.9393 0.0150871C30.9151 -0.0082283 30.8909 -0.0082283 30.8909 0.0383987Z" fill="#D91E1E"/>
<path d="M53.1468 17.5033C46.8537 22.1763 41.8944 27.1873 38.1718 32.6295C34.3765 38.1882 31.8666 44.3645 31.2239 49.6669C31.1633 50.133 31.1269 50.5176 31.139 50.5176C31.1512 50.5176 31.7089 49.9932 32.3637 49.3406C34.1825 47.5576 36.1347 46.4156 38.1718 45.9145C39.1176 45.6814 41.0941 45.693 42.0641 45.9261L42.8159 46.1009L44.5013 45.0521C45.4229 44.4811 46.8901 43.5605 47.751 43.0244C49.1939 42.1154 49.9578 41.6493 53.45 39.4701C55.1475 38.4096 55.9721 37.8969 58.0576 36.5917C59.9977 35.3914 61.0769 34.7038 62.7017 33.7016L63.7081 33.0723L63.1867 32.9325C62.4835 32.7344 60.8344 31.7555 60.0705 31.1029C58.8943 30.089 58.4699 28.982 58.7245 27.5835C58.9064 26.558 59.7188 24.9382 60.6404 23.7728C61.3315 22.8872 63.0534 21.1974 63.696 20.7663L63.9991 20.5681L63.6354 20.6148C62.532 20.8012 53.8501 21.7451 53.8016 21.6985C53.7652 21.6752 53.9592 20.4633 54.2139 19.0066C54.4806 17.5615 54.6868 16.3729 54.6746 16.3729C54.6625 16.3729 53.9835 16.874 53.1468 17.5033Z" fill="#D91E1E"/>
<path d="M32.3181 63.9997C34.9961 57.653 44.8912 52.6633 56.4657 54.1079L52.2898 48.7684C41.7593 47.2365 32.182 56.1213 32.182 56.1213C32.182 56.1213 26.9621 47.3678 11.711 48.7684L7.53516 54.1079C19.155 52.6198 29.6855 57.7845 32.3181 63.9997Z" fill="#D91E1E"/>
</svg>
